<svg xmlns="http://www.w3.org/2000/svg" width="960" height="1080" viewBox="0 0 960 1080">
  <!--
    Huida de la M2 · cultivos · borde del barranco: matorral y la senda que baja a la quebrada
    Capa: juego (paralaje 1.0, 200 px/m). La base del viewBox es el suelo de la capa
    salvo que el módulo se coloque por arriba (cielo, mosaicos de suelo).
    Se coloca arriba (y=0). La senda sale por la derecha hacia la quebrada.
    Colores: paleta del juego (game/art/paleta.json, planeacion/arte/tomo1/paleta.md): lavados bajo la
    línea (tinta), rojo y azul enteros.
    GENERADO por game/art/gen/huida.py: edita el script, no este archivo.
  -->
  <defs>
    <pattern id="rayado" width="9" height="9" patternUnits="userSpaceOnUse" patternTransform="rotate(45)"><line x1="0" y1="0" x2="0" y2="9" stroke="#1d1713" stroke-width="1.2"/></pattern>
  </defs>
<g data-p="matorral de monte: por verificar"><path d="M522,756.2 Q540.1,776.6 517.9,798.8 Q495.7,821.1 475.6,841.8 Q455.6,862.6 425,868.5 Q394.3,874.5 358.3,871.1 Q322.3,867.6 298.7,844.5 Q275.1,821.4 268.4,799 Q261.8,776.6 277.2,754.7 Q292.5,732.7 311.2,713.3 Q329.9,693.8 362.1,691.9 Q394.3,690.1 424.4,697.7 Q454.4,705.3 479.1,720.5 Q503.8,735.7 522,756.2 Z" fill="#27241f" stroke="#1d1713" stroke-width="1.6"/><path d="M564.4,749.6 Q575,773.4 572.8,795.1 Q570.6,816.8 548.2,838.5 Q525.8,860.1 488,870.2 Q450.3,880.3 415.1,868 Q379.8,855.7 358.7,835.6 Q337.5,815.4 316.5,794.4 Q295.5,773.4 319.4,752.2 Q343.4,731 357.3,714.3 Q371.3,697.6 410.8,689.3 Q450.3,681.1 480,685.1 Q509.7,689.2 531.7,707.5 Q553.7,725.8 564.4,749.6 Z" fill="#27241f" stroke="#1d1713" stroke-width="1.6"/><path d="M610,769.5 Q625.6,790.8 612.4,807.8 Q599.2,824.8 578.2,838.4 Q557.3,852.1 531,862.6 Q504.8,873.2 480,862.3 Q455.3,851.4 436.2,842 Q417.1,832.7 398.2,811.7 Q379.3,790.8 400,770.7 Q420.7,750.6 438.5,736.9 Q456.3,723.1 480.5,713.9 Q504.8,704.6 534.7,716.7 Q564.6,728.7 579.5,738.4 Q594.4,748.1 610,769.5 Z" fill="#27241f" stroke="#1d1713" stroke-width="1.6"/><path d="M709.8,769.2 Q720.8,788.4 709.5,808.1 Q698.1,827.7 680.3,838 Q662.5,848.2 634.8,852.2 Q607.2,856.2 582,856.2 Q556.9,856.3 533.2,841.4 Q509.6,826.5 507.1,807.5 Q504.5,788.4 506.4,767.4 Q508.3,746.4 532.7,728.5 Q557.2,710.6 582.2,709.2 Q607.2,707.8 635.9,715.2 Q664.6,722.6 681.7,736.3 Q698.7,750 709.8,769.2 Z" fill="#27241f" stroke="#1d1713" stroke-width="1.6"/><path d="M774.7,756.6 Q771.3,780.8 779.1,804.3 Q786.9,827.8 759.4,838.5 Q731.9,849.2 698.4,864.3 Q664.8,879.4 632.8,863.7 Q600.8,847.9 585,834.6 Q569.2,821.3 562.4,801.1 Q555.7,780.8 551.5,762 Q547.3,743.2 570.4,727.3 Q593.5,711.4 629.2,704.4 Q664.8,697.5 700.6,700.3 Q736.5,703 757.3,717.7 Q778.1,732.4 774.7,756.6 Z" fill="#27241f" stroke="#1d1713" stroke-width="1.6"/><path d="M806.4,778.6 Q817.5,797.2 804.5,817.1 Q791.6,837 774.2,844 Q756.8,850.9 735.4,862.8 Q714.1,874.7 687.1,865.9 Q660.1,857 641.2,843.5 Q622.3,830 615.6,813.6 Q608.9,797.2 612.5,781.6 Q616.2,766 640.8,754.1 Q665.4,742.2 689.8,729.6 Q714.1,717 735.3,726 Q756.4,735.1 775.8,747.5 Q795.2,759.9 806.4,778.6 Z" fill="#27241f" stroke="#1d1713" stroke-width="1.6"/><path d="M943.9,725.3 Q963.4,756.2 942.2,787 Q921,817.8 893.2,829.5 Q865.3,841.3 824.6,863.5 Q783.8,885.7 742.6,864.9 Q701.4,844 674.3,831.6 Q647.2,819.3 639.7,787.7 Q632.1,756.2 643.9,725.6 Q655.7,694.9 679.6,676 Q703.5,657 743.7,649.9 Q783.8,642.7 826.1,643.3 Q868.3,644 896.3,669.2 Q924.4,694.4 943.9,725.3 Z" fill="#27241f" stroke="#1d1713" stroke-width="1.6"/><path d="M968,776.2 Q979.8,793 963,811.5 Q946.1,830 927.9,847.5 Q909.7,865 883.9,871.4 Q858.1,877.7 832.5,869.7 Q807,861.7 789.7,846.3 Q772.5,831 754.1,812 Q735.8,793 746.4,772.4 Q757.1,751.8 780.3,741.6 Q803.5,731.4 830.8,721.3 Q858.1,711.1 886.8,722.3 Q915.6,733.4 935.9,746.4 Q956.2,759.4 968,776.2 Z" fill="#27241f" stroke="#1d1713" stroke-width="1.6"/><path d="M1042.8,771.7 Q1056.5,788.5 1035.4,808.9 Q1014.2,829.2 1005.1,841.3 Q995.9,853.4 963.4,854.7 Q930.9,856.1 900.9,852 Q870.8,848 858.2,838 Q845.6,828.1 837.7,808.3 Q829.7,788.5 835.9,766.9 Q842.2,745.2 853.9,730.7 Q865.6,716.3 898.2,716.4 Q930.9,716.5 958.3,713.5 Q985.6,710.6 1007.4,732.8 Q1029.1,754.9 1042.8,771.7 Z" fill="#27241f" stroke="#1d1713" stroke-width="1.6"/></g><g data-p="cultivo de papa en surcos: por verificar"><rect x="0" y="900" width="960" height="180" fill="#302823"/><path d="M0,906 Q480,901 960,906 L960,913 Q480,908 0,913 Z" fill="#1d1713" fill-opacity="0.18"/><path d="M0,940 Q480,935 960,940 L960,950.5 Q480,945.5 0,950.5 Z" fill="#1d1713" fill-opacity="0.18"/><path d="M0,984 Q480,979 960,984 L960,998 Q480,993 0,998 Z" fill="#1d1713" fill-opacity="0.18"/><path d="M0,1038 Q480,1033 960,1038 L960,1055.5 Q480,1050.5 0,1055.5 Z" fill="#1d1713" fill-opacity="0.18"/></g><path d="M700,1080 Q780,960 960,920 L960,1080 Z" fill="#342c26"/>
</svg>
