<svg xmlns="http://www.w3.org/2000/svg" width="700" height="760" viewBox="0 0 700 760">
  <!--
    Huida de la M2 · cultivos · la casa de los Insuasty ardiendo, vista desde los cultivos
    Capa: lejos (paralaje 0.15, 30 px/m). La base del viewBox es el suelo de la capa
    salvo que el módulo se coloque por arriba (cielo, mosaicos de suelo).
    Se coloca arriba (y=0); el suelo lejano queda en y=628. Fuego en ocre y amarillo, nunca rojo (paleta.md §3); sin personas: la quema se ve a distancia (doc 02 M2 b4).
    Colores: paleta del juego (game/art/paleta.json, planeacion/arte/tomo1/paleta.md): lavados bajo la
    línea (grafito), rojo y azul enteros.
    GENERADO por game/art/gen/huida.py: edita el script, no este archivo.
  -->
  <defs>
    <pattern id="rayado" width="9" height="9" patternUnits="userSpaceOnUse" patternTransform="rotate(45)"><line x1="0" y1="0" x2="0" y2="9" stroke="#544f49" stroke-width="1.2"/></pattern>
  </defs>
<path d="M346.1,485.8 Q348.6,490 346.8,494.3 Q345,498.5 339.1,502.2 Q333.2,505.8 326.1,504.5 Q319,503.1 314.5,501.8 Q310.1,500.5 306.4,495.3 Q302.7,490 305.8,485.7 Q309,481.3 314.2,477.1 Q319.4,472.9 325.8,473.1 Q332.2,473.2 337.9,477.5 Q343.6,481.7 346.1,485.8 Z" fill="#3b3734" fill-opacity="0.90"/><clipPath id="r4"><path d="M346.1,485.8 Q348.6,490 346.8,494.3 Q345,498.5 339.1,502.2 Q333.2,505.8 326.1,504.5 Q319,503.1 314.5,501.8 Q310.1,500.5 306.4,495.3 Q302.7,490 305.8,485.7 Q309,481.3 314.2,477.1 Q319.4,472.9 325.8,473.1 Q332.2,473.2 337.9,477.5 Q343.6,481.7 346.1,485.8 Z"/></clipPath><g clip-path="url(#r4)"><ellipse cx="326" cy="505.4" rx="22" ry="11" fill="#c68a49" fill-opacity="0.35"/></g><path d="M357.1,465.5 Q359.1,470.2 354.9,475.6 Q350.8,481 346.5,484.8 Q342.2,488.6 335.4,486.5 Q328.5,484.4 323.1,483 Q317.6,481.7 316.2,475.9 Q314.9,470.2 315.9,465.1 Q317,460.1 322.5,456.7 Q327.9,453.3 334.5,453.6 Q341.1,453.9 348,457.4 Q355,460.9 357.1,465.5 Z" fill="#3b3734" fill-opacity="0.87"/><clipPath id="r5"><path d="M357.1,465.5 Q359.1,470.2 354.9,475.6 Q350.8,481 346.5,484.8 Q342.2,488.6 335.4,486.5 Q328.5,484.4 323.1,483 Q317.6,481.7 316.2,475.9 Q314.9,470.2 315.9,465.1 Q317,460.1 322.5,456.7 Q327.9,453.3 334.5,453.6 Q341.1,453.9 348,457.4 Q355,460.9 357.1,465.5 Z"/></clipPath><g clip-path="url(#r5)"><ellipse cx="334.7" cy="486.6" rx="23.5" ry="11.7" fill="#c68a49" fill-opacity="0.35"/></g><path d="M367.7,444.1 Q367.8,449.1 366.4,454.9 Q364.9,460.7 359.5,463.8 Q354.2,467 345.9,466.1 Q337.6,465.3 332.6,462 Q327.6,458.8 325.3,453.9 Q323.1,449.1 324.1,443.5 Q325.1,437.9 331.4,435 Q337.7,432.2 345.7,431.6 Q353.7,430.9 360.7,435.1 Q367.7,439.2 367.7,444.1 Z" fill="#3b3734" fill-opacity="0.85"/><clipPath id="r6"><path d="M367.7,444.1 Q367.8,449.1 366.4,454.9 Q364.9,460.7 359.5,463.8 Q354.2,467 345.9,466.1 Q337.6,465.3 332.6,462 Q327.6,458.8 325.3,453.9 Q323.1,449.1 324.1,443.5 Q325.1,437.9 331.4,435 Q337.7,432.2 345.7,431.6 Q353.7,430.9 360.7,435.1 Q367.7,439.2 367.7,444.1 Z"/></clipPath><g clip-path="url(#r6)"><ellipse cx="345.8" cy="466.6" rx="25" ry="12.5" fill="#c68a49" fill-opacity="0.35"/></g><path d="M385,420.1 Q388.6,426.5 386.3,432.7 Q384,438.9 376.3,441.5 Q368.7,444.1 360.6,445.3 Q352.5,446.5 346.8,442.5 Q341.2,438.4 337.1,432.5 Q333,426.5 336.1,421.5 Q339.1,416.5 345.8,410.6 Q352.5,404.7 360.7,406.9 Q368.8,409 375.1,411.3 Q381.4,413.6 385,420.1 Z" fill="#3b3734" fill-opacity="0.82"/><clipPath id="r7"><path d="M385,420.1 Q388.6,426.5 386.3,432.7 Q384,438.9 376.3,441.5 Q368.7,444.1 360.6,445.3 Q352.5,446.5 346.8,442.5 Q341.2,438.4 337.1,432.5 Q333,426.5 336.1,421.5 Q339.1,416.5 345.8,410.6 Q352.5,404.7 360.7,406.9 Q368.8,409 375.1,411.3 Q381.4,413.6 385,420.1 Z"/></clipPath><g clip-path="url(#r7)"><ellipse cx="360" cy="445.7" rx="27.4" ry="13.7" fill="#c68a49" fill-opacity="0.35"/></g><path d="M392.5,396.2 Q395.2,401.9 394.3,408.5 Q393.4,415.2 385,417.9 Q376.6,420.5 368.6,420.3 Q360.5,420.1 354.2,417.9 Q348,415.6 346.3,408.7 Q344.6,401.9 346.4,395.1 Q348.2,388.3 354.4,384 Q360.7,379.6 368.8,379.7 Q377,379.7 383.4,385.1 Q389.9,390.5 392.5,396.2 Z" fill="#3b3734" fill-opacity="0.79"/><path d="M412.6,369.8 Q417.6,376 415.2,383.4 Q412.9,390.7 403.4,394.1 Q393.8,397.4 384,397.5 Q374.2,397.6 368.9,394.5 Q363.7,391.4 359.4,383.7 Q355.2,376 358.2,369.8 Q361.3,363.5 368,360.1 Q374.7,356.6 383.8,355.4 Q393,354.1 400.3,358.9 Q407.6,363.6 412.6,369.8 Z" fill="#3b3734" fill-opacity="0.77"/><path d="M429.2,340.7 Q433.3,347.8 428.9,354.6 Q424.6,361.4 416.9,367.6 Q409.2,373.8 399.2,371.2 Q389.1,368.6 382.6,364.7 Q376,360.9 370.6,354.3 Q365.2,347.8 371.7,340.2 Q378.1,332.5 383.5,330.2 Q388.9,327.8 398.7,327.7 Q408.6,327.7 416.9,330.7 Q425.1,333.7 429.2,340.7 Z" fill="#3b3734" fill-opacity="0.74"/><path d="M446.1,311.5 Q451.8,318.2 444.8,325.6 Q437.7,333 430.9,338.1 Q424,343.1 411.8,344.3 Q399.6,345.4 389.9,338.9 Q380.2,332.5 379.6,325.3 Q379,318.2 381.4,310.8 Q383.7,303.5 391.6,297.3 Q399.4,291.2 410.8,293.2 Q422.2,295.1 431.3,300 Q440.4,304.8 446.1,311.5 Z" fill="#3b3734" fill-opacity="0.71"/><path d="M454,276.6 Q459.8,285.6 454.8,293.6 Q449.7,301.6 441.4,305.7 Q433,309.8 421.3,310.7 Q409.6,311.6 400.3,306 Q390.9,300.4 385.7,293 Q380.5,285.6 384.3,277.6 Q388,269.6 399.1,266.1 Q410.1,262.6 422.7,260 Q435.3,257.3 441.8,262.5 Q448.2,267.7 454,276.6 Z" fill="#3b3734" fill-opacity="0.69"/><path d="M480.9,243.3 Q485.2,251 481.8,258.6 Q478.4,266.3 465.5,274 Q452.5,281.7 440.2,279.4 Q427.9,277.1 418.5,274 Q409.1,270.9 401.7,261 Q394.4,251 398.6,240.8 Q402.8,230.5 414.5,228.2 Q426.2,225.8 439.7,223.6 Q453.3,221.3 465,228.4 Q476.6,235.5 480.9,243.3 Z" fill="#3b3734" fill-opacity="0.66"/><path d="M498.6,204.6 Q499.4,213.4 497.1,222.3 Q494.7,231.3 485.8,239.4 Q476.9,247.5 461.9,244.5 Q446.9,241.5 435.8,237.3 Q424.6,233 419,223.2 Q413.4,213.4 418.4,204.2 Q423.5,195 436.7,189.4 Q450,183.8 462.2,181.3 Q474.4,178.7 486.1,187.3 Q497.8,195.9 498.6,204.6 Z" fill="#3b3734" fill-opacity="0.63"/><path d="M512.9,164 Q518.4,174.1 512.3,183.9 Q506.2,193.8 498.1,198.2 Q490.1,202.5 473.9,205.6 Q457.7,208.6 445.9,200.9 Q434.1,193.2 429.9,183.6 Q425.7,174.1 432.4,164 Q439.1,153.9 450.2,147.7 Q461.2,141.5 473.8,140 Q486.4,138.5 496.9,146.2 Q507.3,154 512.9,164 Z" fill="#3b3734" fill-opacity="0.61"/><path d="M545,119.4 Q548.8,131.6 542.5,141.5 Q536.3,151.4 525,160.3 Q513.8,169.2 499.4,169.6 Q484.9,170 470.3,162.6 Q455.6,155.2 456.2,143.4 Q456.9,131.6 457.9,120.9 Q458.9,110.2 472.6,105.4 Q486.3,100.6 501,96.7 Q515.7,92.7 528.4,99.9 Q541.2,107.1 545,119.4 Z" fill="#3b3734" fill-opacity="0.58"/><path d="M565.9,72.2 Q572.7,85.9 565.6,99.3 Q558.5,112.7 546.7,119.8 Q535,127 519.4,128.4 Q503.9,129.8 488,118.2 Q472.1,106.5 469.6,96.2 Q467,85.9 470.9,72.8 Q474.7,59.8 488.1,54.7 Q501.6,49.6 518.9,49.9 Q536.1,50.1 547.6,54.4 Q559.1,58.6 565.9,72.2 Z" fill="#3b3734" fill-opacity="0.55"/><path d="M590.7,22.3 Q600.8,35.1 595.5,47.8 Q590.2,60.5 573.9,67.8 Q557.5,75 537.8,78.5 Q518.1,82.1 505.7,74 Q493.3,66 486.6,50.6 Q479.9,35.1 481.3,20.1 Q482.6,5 498.9,-3.4 Q515.2,-11.8 535.6,-7.6 Q556,-3.4 568.3,3.1 Q580.7,9.5 590.7,22.3 Z" fill="#3b3734" fill-opacity="0.53"/><rect x="140" y="538" width="420" height="90" fill="#3b3530" stroke="#251f1b" stroke-width="1.1"/><rect x="140" y="604" width="420" height="24" fill="#362f29"/><path d="M131,538 L215,499 L290,523 L326,535 L410,508 L530,499 L569,538 Z" fill="#342c26" stroke="#251f1b" stroke-width="1.1"/><path d="M290,523 L308,490 M338,532 L359,496" stroke="#251f1b" stroke-width="2.6" stroke-linecap="round"/><rect x="200" y="565" width="33" height="30" fill="#251f1b"/><rect x="362" y="565" width="30" height="30" fill="#251f1b"/><rect x="476" y="565" width="27" height="30" fill="#251f1b"/><rect x="272" y="565" width="28.5" height="63" fill="#251f1b"/><ellipse cx="350" cy="628" rx="330" ry="48" fill="#e8b45e" fill-opacity="0.16"/><rect x="140" y="538" width="420" height="90" fill="#c68a49" fill-opacity="0.18"/><rect x="202" y="567" width="29" height="26" fill="#e8b45e"/><rect x="209.9" y="571" width="13.2" height="15" fill="#f9eda7"/><rect x="364" y="567" width="26" height="26" fill="#e8b45e"/><rect x="371" y="571" width="12" height="15" fill="#f9eda7"/><rect x="478" y="567" width="23" height="26" fill="#e8b45e"/><rect x="484.1" y="571" width="10.8" height="15" fill="#f9eda7"/><rect x="274" y="567" width="24.5" height="61" fill="#c68a49"/><path d="M263,532 L270.8,495.6 L272.2,462.5 L280.4,489.4 L297.1,499.8 L296.3,470.9 L306.7,498.7 L315,489.3 L320.4,455.9 L324.6,503.7 L335,532 Z" fill="#e8b45e" stroke="#c68a49" stroke-width="1.5" stroke-linejoin="round"/><path d="M281,532 Q291.8,496.9 299,489.1 Q306.2,496.9 317,532 Z" fill="#f9eda7"/><path d="M314,538 L323.9,487.8 L331.2,442.3 L332.7,493.9 L342.6,494.2 L341.4,459.8 L351.4,497.5 L364.2,493.2 L374.6,437.9 L373,492.4 L380,538 Z" fill="#e8b45e" stroke="#c68a49" stroke-width="1.5" stroke-linejoin="round"/><path d="M330.5,538 Q340.4,493.4 347,483.6 Q353.6,493.4 363.5,538 Z" fill="#f9eda7"/><path d="M365,526 L367,496.5 L370,479.4 L373.4,499.9 L386.3,502 L387.6,478.1 L392.7,496 L398.8,504.6 L397.7,476.6 L405.2,494 L413,526 Z" fill="#e8b45e" stroke="#c68a49" stroke-width="1.5" stroke-linejoin="round"/><path d="M377,526 Q384.2,499 389,493 Q393.8,499 401,526 Z" fill="#f9eda7"/><circle cx="345.5" cy="348" r="1.9" fill="#f9eda7"/><circle cx="434.4" cy="340.6" r="1.4" fill="#f9eda7"/><circle cx="379.9" cy="344.7" r="2" fill="#f9eda7"/><circle cx="307.6" cy="441.7" r="1.6" fill="#f9eda7"/><circle cx="350.8" cy="347.5" r="1.6" fill="#f9eda7"/><circle cx="433.9" cy="349.6" r="2" fill="#f9eda7"/><circle cx="334.4" cy="433.2" r="1.8" fill="#f9eda7"/><circle cx="302.5" cy="428.3" r="1.7" fill="#f9eda7"/><circle cx="283.6" cy="428.1" r="1.6" fill="#f9eda7"/>
</svg>
