<svg xmlns="http://www.w3.org/2000/svg" width="960" height="1080" viewBox="0 0 960 1080">
  <!--
    Huida de la M2 · cultivos · salida del solar: la cerca y la senda entre la papa
    Capa: juego (paralaje 1.0, 200 px/m). La base del viewBox es el suelo de la capa
    salvo que el módulo se coloque por arriba (cielo, mosaicos de suelo).
    Se coloca arriba (y=0). Por el boquete (x 120–300) entra Rosalba desde la casa.
    Colores: paleta del juego (game/art/paleta.json, planeacion/arte/tomo1/paleta.md): lavados bajo la
    línea (tinta), rojo y azul enteros.
    GENERADO por game/art/gen/huida.py: edita el script, no este archivo.
  -->
  <defs>
    <pattern id="rayado" width="9" height="9" patternUnits="userSpaceOnUse" patternTransform="rotate(45)"><line x1="0" y1="0" x2="0" y2="9" stroke="#1d1713" stroke-width="1.2"/></pattern>
  </defs>
<g data-p="cerca de piedra seca: por verificar (paleta.md, «piedra»)"><path d="M-20,880 L-20,730 Q-7.3,700.5 43.7,700.5 Q94.7,700.5 107.5,730 Q108.7,697.2 113.7,697.2 Q118.7,697.2 120,730 L120,880 Z" fill="#322d28"/><clipPath id="r48"><path d="M-20,880 L-20,730 Q-7.3,700.5 43.7,700.5 Q94.7,700.5 107.5,730 Q108.7,697.2 113.7,697.2 Q118.7,697.2 120,730 L120,880 Z"/></clipPath><g clip-path="url(#r48)"><rect x="-20" y="738" width="140" height="16" fill="#1d1713" fill-opacity="0.18"/><path d="M107.5,728 L107,747.7 M120,728 L119.8,749.7" stroke="#1d1713" stroke-width="1" fill="none"/><path d="M58.1,770.9 Q62.6,778.4 58.7,786.6 Q54.8,794.7 43.2,796.5 Q31.6,798.2 18,795 Q4.4,791.8 0.9,785.1 Q-2.6,778.4 3.2,771.6 Q9.1,764.8 20.3,760.2 Q31.6,755.5 42.6,759.4 Q53.5,763.4 58.1,770.9 Z" fill="none" stroke="#1d1713" stroke-width="1"/><path d="M3.1,791.7 Q31.6,802.8 60.1,791.7" stroke="#1d1713" stroke-width="0.8" fill="none"/></g><path d="M-20,880 L-20,730 Q-7.3,700.5 43.7,700.5 Q94.7,700.5 107.5,730 Q108.7,697.2 113.7,697.2 Q118.7,697.2 120,730 L120,880 Z" fill="none" stroke="#1d1713" stroke-width="1.8"/><path d="M300,880 L300,730 Q309.3,704 346.4,704 Q383.6,704 392.9,730 Q404.4,700.8 450.3,700.8 Q496.2,700.8 507.7,730 Q518.3,701.4 560.8,701.4 Q603.3,701.4 613.9,730 Q628.4,694.8 686.5,694.8 Q744.6,694.8 759.1,730 Q767.2,703.5 799.6,703.5 Q831.9,703.5 840,730 L840,880 Z" fill="#322d28"/><clipPath id="r49"><path d="M300,880 L300,730 Q309.3,704 346.4,704 Q383.6,704 392.9,730 Q404.4,700.8 450.3,700.8 Q496.2,700.8 507.7,730 Q518.3,701.4 560.8,701.4 Q603.3,701.4 613.9,730 Q628.4,694.8 686.5,694.8 Q744.6,694.8 759.1,730 Q767.2,703.5 799.6,703.5 Q831.9,703.5 840,730 L840,880 Z"/></clipPath><g clip-path="url(#r49)"><rect x="300" y="738" width="540" height="16" fill="#1d1713" fill-opacity="0.18"/><path d="M392.9,728 L390.8,745.6 M507.7,728 L508.7,747.5 M613.9,728 L612.5,747.1 M759.1,728 L758.5,751.1 M840,728 L839.8,745.9" stroke="#1d1713" stroke-width="1" fill="none"/><path d="M554.9,810.7 Q561.5,816.6 555,822.8 Q548.5,829.1 533.8,831.4 Q519.2,833.8 506.8,831.6 Q494.5,829.4 487.7,823 Q481,816.6 486.5,811.3 Q492,806 505.6,803.1 Q519.2,800.2 533.7,802.5 Q548.3,804.8 554.9,810.7 Z" fill="none" stroke="#1d1713" stroke-width="1"/><path d="M486.6,826.8 Q519.2,835.3 551.7,826.8" stroke="#1d1713" stroke-width="0.8" fill="none"/><path d="M831.9,773 Q837.4,778.2 831.4,784.4 Q825.4,790.7 811.5,792.7 Q797.5,794.8 782.7,791.7 Q767.9,788.6 760.6,783.4 Q753.3,778.2 759.3,772.6 Q765.3,767 781.4,764.3 Q797.5,761.7 812,764.7 Q826.5,767.8 831.9,773 Z" fill="none" stroke="#1d1713" stroke-width="1"/><path d="M763.4,788 Q797.5,796.2 831.7,788" stroke="#1d1713" stroke-width="0.8" fill="none"/></g><path d="M300,880 L300,730 Q309.3,704 346.4,704 Q383.6,704 392.9,730 Q404.4,700.8 450.3,700.8 Q496.2,700.8 507.7,730 Q518.3,701.4 560.8,701.4 Q603.3,701.4 613.9,730 Q628.4,694.8 686.5,694.8 Q744.6,694.8 759.1,730 Q767.2,703.5 799.6,703.5 Q831.9,703.5 840,730 L840,880 Z" fill="none" stroke="#1d1713" stroke-width="1.8"/></g><g data-p="cultivo de papa en surcos: por verificar"><rect x="0" y="900" width="960" height="180" fill="#302823"/><path d="M0,906 Q480,901 960,906 L960,913 Q480,908 0,913 Z" fill="#1d1713" fill-opacity="0.18"/><path d="M54.2,899.2 Q55.1,901.1 54.2,903.1 Q53.4,905.1 51,906.3 Q48.6,907.5 45.2,907.5 Q41.7,907.5 39,906.3 Q36.3,905.1 35,903.1 Q33.7,901.1 35.5,899.2 Q37.4,897.2 39.9,896 Q42.5,894.8 45.7,894.8 Q48.8,894.8 51.1,896 Q53.3,897.2 54.2,899.2 Z" fill="#28251f" stroke="#1d1713" stroke-width="1.2"/><path d="M178.5,899.9 Q180.2,901.6 178.6,903.4 Q177.1,905.2 174.6,906.3 Q172.2,907.3 169.1,907.3 Q166.1,907.3 163.4,906.3 Q160.7,905.2 160.1,903.4 Q159.6,901.6 160.2,899.9 Q160.8,898.1 163.1,897 Q165.3,895.9 168.9,895.9 Q172.4,895.9 174.6,897 Q176.8,898.1 178.5,899.9 Z" fill="#28251f" stroke="#1d1713" stroke-width="1.2"/><path d="M268.7,900.2 Q270.6,901.9 268.6,903.6 Q266.6,905.2 265,906.2 Q263.3,907.3 260.5,907.3 Q257.7,907.3 254.8,906.2 Q251.8,905.2 251.1,903.6 Q250.3,901.9 251.1,900.2 Q251.9,898.6 254.7,897.5 Q257.5,896.5 260.2,896.5 Q262.9,896.5 264.9,897.5 Q266.8,898.6 268.7,900.2 Z" fill="#28251f" stroke="#1d1713" stroke-width="1.2"/><path d="M336.8,900.1 Q336.5,901.8 336.1,903.5 Q335.7,905.2 333.7,906.2 Q331.7,907.3 328.3,907.3 Q325,907.3 322.9,906.2 Q320.7,905.2 319.6,903.5 Q318.4,901.8 319.1,900.1 Q319.8,898.4 322.6,897.4 Q325.3,896.3 328.1,896.3 Q331,896.3 334,897.4 Q337,898.4 336.8,900.1 Z" fill="#28251f" stroke="#1d1713" stroke-width="1.2"/><path d="M435.9,898.2 Q437.6,900.5 436.2,902.7 Q434.8,904.9 431.9,906.3 Q429,907.7 425.2,907.7 Q421.5,907.7 417.4,906.3 Q413.3,904.9 412.4,902.7 Q411.6,900.5 413.2,898.2 Q414.9,896 418.4,894.6 Q421.9,893.3 425.3,893.3 Q428.7,893.3 431.4,894.6 Q434.1,896 435.9,898.2 Z" fill="#28251f" stroke="#1d1713" stroke-width="1.2"/><path d="M567.3,898.1 Q567.5,900.4 567.2,902.6 Q567,904.9 563,906.3 Q559,907.7 555,907.7 Q551,907.7 547.7,906.3 Q544.5,904.9 542.7,902.6 Q540.9,900.4 541.7,898.1 Q542.6,895.8 546.3,894.4 Q550,893 554.4,893 Q558.9,893 563,894.4 Q567.1,895.8 567.3,898.1 Z" fill="#28251f" stroke="#1d1713" stroke-width="1.2"/><path d="M709.8,899.9 Q710.5,901.6 709.3,903.4 Q708,905.2 705.6,906.3 Q703.2,907.3 700.2,907.3 Q697.3,907.3 694.9,906.3 Q692.6,905.2 692.4,903.4 Q692.1,901.6 691.8,899.9 Q691.4,898.1 694.2,897 Q696.9,896 700.4,896 Q703.9,896 706.5,897 Q709.1,898.1 709.8,899.9 Z" fill="#28251f" stroke="#1d1713" stroke-width="1.2"/><path d="M808.1,899.4 Q809.8,901.3 807.8,903.2 Q805.8,905.1 803.9,906.3 Q801.9,907.4 798.8,907.4 Q795.6,907.4 792.7,906.3 Q789.8,905.1 788.6,903.2 Q787.4,901.3 789.3,899.4 Q791.2,897.5 793.2,896.3 Q795.2,895.2 798.5,895.2 Q801.8,895.2 804.1,896.3 Q806.5,897.5 808.1,899.4 Z" fill="#28251f" stroke="#1d1713" stroke-width="1.2"/><path d="M892.3,899 Q892.8,901 891.6,903 Q890.5,905 888.3,906.3 Q886.2,907.5 882.5,907.5 Q878.9,907.5 876.9,906.3 Q874.9,905 872.9,903 Q871,901 871.7,899 Q872.5,897 875.8,895.8 Q879,894.6 882.9,894.6 Q886.8,894.6 889.2,895.8 Q891.7,897 892.3,899 Z" fill="#28251f" stroke="#1d1713" stroke-width="1.2"/><path d="M0,940 Q480,935 960,940 L960,950.5 Q480,945.5 0,950.5 Z" fill="#1d1713" fill-opacity="0.18"/><path d="M72,929.7 Q71.8,932.6 72.4,935.6 Q72.9,938.6 67.8,940.4 Q62.7,942.3 57.4,942.3 Q52,942.3 46.3,940.4 Q40.6,938.6 40.6,935.6 Q40.7,932.6 40.7,929.7 Q40.7,926.7 46.5,924.9 Q52.4,923 57.1,923 Q61.8,923 67,924.9 Q72.2,926.7 72,929.7 Z" fill="#28251f" stroke="#1d1713" stroke-width="1.2"/><path d="M241.9,931.1 Q244,933.7 242.9,936.2 Q241.8,938.8 238.4,940.4 Q235.1,941.9 229.9,941.9 Q224.8,941.9 222.5,940.4 Q220.3,938.8 217.7,936.2 Q215.2,933.7 216,931.1 Q216.7,928.6 220.7,927 Q224.6,925.4 229.1,925.4 Q233.5,925.4 236.7,927 Q239.8,928.6 241.9,931.1 Z" fill="#28251f" stroke="#1d1713" stroke-width="1.2"/><path d="M366,929.5 Q367.5,932.5 365.4,935.6 Q363.2,938.6 359,940.4 Q354.7,942.3 349.2,942.3 Q343.8,942.3 339.9,940.4 Q336,938.6 332.5,935.6 Q329,932.5 330.9,929.5 Q332.8,926.5 338.5,924.7 Q344.2,922.8 349.1,922.8 Q354,922.8 359.2,924.7 Q364.5,926.5 366,929.5 Z" fill="#28251f" stroke="#1d1713" stroke-width="1.2"/><path d="M499.9,930.4 Q501.2,933.2 500.1,935.9 Q498.9,938.7 494.8,940.4 Q490.7,942.1 485.8,942.1 Q480.9,942.1 476.8,940.4 Q472.6,938.7 470.9,935.9 Q469.1,933.2 472.1,930.4 Q475.1,927.7 478.6,926 Q482.1,924.3 486.3,924.3 Q490.6,924.3 494.6,926 Q498.5,927.7 499.9,930.4 Z" fill="#28251f" stroke="#1d1713" stroke-width="1.2"/><path d="M666.1,930.6 Q666.9,933.3 666.1,936 Q665.4,938.7 661.6,940.4 Q657.9,942.1 653.3,942.1 Q648.6,942.1 644.3,940.4 Q640,938.7 638.3,936 Q636.7,933.3 638.9,930.6 Q641.2,927.8 644.6,926.2 Q648,924.5 652.9,924.5 Q657.9,924.5 661.6,926.2 Q665.3,927.8 666.1,930.6 Z" fill="#28251f" stroke="#1d1713" stroke-width="1.2"/><path d="M823.2,929.2 Q825.7,932.3 822.5,935.4 Q819.3,938.5 815.9,940.4 Q812.4,942.4 807.2,942.4 Q802,942.4 797.1,940.4 Q792.2,938.5 791.9,935.4 Q791.6,932.3 791.5,929.2 Q791.5,926.1 797,924.2 Q802.6,922.3 808.1,922.3 Q813.6,922.3 817.1,924.2 Q820.6,926.1 823.2,929.2 Z" fill="#28251f" stroke="#1d1713" stroke-width="1.2"/><path d="M0,984 Q480,979 960,984 L960,998 Q480,993 0,998 Z" fill="#1d1713" fill-opacity="0.18"/><path d="M47.3,968.5 Q49,972.9 48.2,977.4 Q47.3,981.9 39,984.6 Q30.6,987.4 22.7,987.4 Q14.7,987.4 8.7,984.6 Q2.6,981.9 -1.2,977.4 Q-5.1,972.9 -1.5,968.5 Q2.1,964 9.7,961.3 Q17.3,958.5 24.2,958.5 Q31,958.5 38.3,961.3 Q45.5,964 47.3,968.5 Z" fill="#28251f" stroke="#1d1713" stroke-width="1.2"/><path d="M293.7,967.3 Q295,972.1 296.1,976.9 Q297.2,981.7 288.5,984.7 Q279.8,987.7 271.3,987.7 Q262.8,987.7 255.2,984.7 Q247.6,981.7 247.5,976.9 Q247.4,972.1 248.2,967.3 Q248.9,962.5 256.5,959.5 Q264.1,956.6 272.6,956.6 Q281,956.6 286.7,959.5 Q292.4,962.5 293.7,967.3 Z" fill="#28251f" stroke="#1d1713" stroke-width="1.2"/><path d="M589.7,971.7 Q592.1,975.3 588.9,978.8 Q585.8,982.3 581.1,984.5 Q576.4,986.7 570.2,986.7 Q563.9,986.7 559,984.5 Q554.1,982.3 551.6,978.8 Q549.1,975.3 552.2,971.7 Q555.4,968.2 560.4,966 Q565.4,963.9 570.7,963.9 Q576,963.9 581.7,966 Q587.4,968.2 589.7,971.7 Z" fill="#28251f" stroke="#1d1713" stroke-width="1.2"/><path d="M824,971.2 Q828.1,974.9 826.2,978.6 Q824.2,982.2 817.9,984.5 Q811.5,986.8 805.1,986.8 Q798.8,986.8 791.6,984.5 Q784.3,982.2 783,978.6 Q781.6,974.9 784.7,971.2 Q787.9,967.5 793.4,965.2 Q799,962.9 805.5,962.9 Q812.1,962.9 816,965.2 Q819.9,967.5 824,971.2 Z" fill="#28251f" stroke="#1d1713" stroke-width="1.2"/><path d="M0,1038 Q480,1033 960,1038 L960,1055.5 Q480,1050.5 0,1055.5 Z" fill="#1d1713" fill-opacity="0.18"/><path d="M33.6,1022.5 Q32,1027 30.1,1031.4 Q28.2,1035.9 23.4,1038.6 Q18.6,1041.4 10.5,1041.4 Q2.3,1041.4 -3.3,1038.6 Q-8.9,1035.9 -10.6,1031.4 Q-12.3,1027 -12.6,1022.5 Q-12.9,1018.1 -5.6,1015.3 Q1.7,1012.6 9.8,1012.6 Q17.9,1012.6 26.5,1015.3 Q35.2,1018.1 33.6,1022.5 Z" fill="#28251f" stroke="#1d1713" stroke-width="1.2"/><path d="M255.9,1017.2 Q257.8,1023.2 255,1029.2 Q252.3,1035.2 245.3,1038.9 Q238.4,1042.6 226.5,1042.6 Q214.7,1042.6 205,1038.9 Q195.4,1035.2 194.8,1029.2 Q194.2,1023.2 195.3,1017.2 Q196.4,1011.2 206.9,1007.5 Q217.3,1003.8 228,1003.8 Q238.7,1003.8 246.4,1007.5 Q254.1,1011.2 255.9,1017.2 Z" fill="#28251f" stroke="#1d1713" stroke-width="1.2"/><path d="M575.2,1017.9 Q574.3,1023.7 574.2,1029.5 Q574.2,1035.3 565.2,1038.8 Q556.1,1042.4 545,1042.4 Q533.9,1042.4 526.4,1038.8 Q518.8,1035.3 517.3,1029.5 Q515.8,1023.7 515,1017.9 Q514.1,1012.2 524.2,1008.6 Q534.4,1005 544.9,1005 Q555.3,1005 565.7,1008.6 Q576.1,1012.2 575.2,1017.9 Z" fill="#28251f" stroke="#1d1713" stroke-width="1.2"/><path d="M913.6,1022.5 Q915.5,1027 913.1,1031.4 Q910.7,1035.9 902.9,1038.6 Q895.1,1041.4 887.3,1041.4 Q879.5,1041.4 874.5,1038.6 Q869.6,1035.9 866.9,1031.4 Q864.3,1027 864.6,1022.5 Q864.9,1018.1 871.7,1015.3 Q878.5,1012.6 886.8,1012.6 Q895,1012.6 903.4,1015.3 Q911.7,1018.1 913.6,1022.5 Z" fill="#28251f" stroke="#1d1713" stroke-width="1.2"/></g>
</svg>
