<svg xmlns="http://www.w3.org/2000/svg" width="300" height="500" viewBox="0 0 300 500">
  <!--
    Rosalba Insuasty — corriendo, variante monte (huida de la M2).
    Personaje ficticio (doc 01); hoja de personaje: planeacion/arte/tomo1/personajes/rosalba.md.
    Vestuario: doc 03 §3.1 [V] y J. Ocampo López, "El pueblo boyacense y su folclor", cap. 4 (BanRep).
    La mano derecha recoge la falda; canillas con pivote en la rodilla, oculta bajo el ruedo (core/animacion/carrera.ts).
    Colores: paleta del juego (game/art/paleta.json, planeacion/arte/tomo1/paleta.md); acento: rojo liberal de la cinta.
    Lado visible = lado DERECHO del personaje: piezas "-der" delante, "-izq" detrás.
    GENERADO por game/art/gen/rosalba.py: edita el script, no este archivo.
  -->

  <!-- Brazo izquierdo (lejano), bracea -->
  <g id="brazo-izq" data-pieza="" data-pivote="164.4 155.6">
    <path d="M154.9,156 L158.8,212.9 C159.1,222.8 174.3,222.2 174,212.4 L173.9,155.3 C173.4,143 154.4,143.6 154.9,156 Z" fill="#f2eee4" stroke="#1d1713" stroke-width="2.2" stroke-linejoin="round"/><path d="M154.9,156 L158.8,212.9 C159.1,222.8 174.3,222.2 174,212.4 L173.9,155.3 C173.4,143 154.4,143.6 154.9,156 Z" fill="#1d1713" fill-opacity="0.18"/>
  </g>

  <!-- Antebrazo y puño izquierdos; hijo de brazo-izq -->
  <g id="antebrazo-izq" data-pieza="" data-pivote="166.4 212.6" data-padre="brazo-izq">
    <path d="M159.2,212.9 L162.4,262.9 C162.7,270.7 174.7,270.2 174.4,262.4 L173.6,212.4 C173.2,203 158.8,203.6 159.2,212.9 Z" fill="#f2eee4" stroke="#1d1713" stroke-width="2.2" stroke-linejoin="round"/><g transform="translate(168.9 275.5) rotate(-2.3) scale(0.9)"><path d="M-8,-8 C-9,-2 -9,4 -7,9 C-3,11 3,11 7,9 C10,4 10,-2 8,-8 C4,-11 -4,-11 -8,-8 Z" fill="#c9ab8c" stroke="#1d1713" stroke-width="2" stroke-linejoin="round"/><path d="M8,-6 C10,-4 10,-1 8.6,0.6 M8.8,1.6 C10.4,3.4 10,6 8,7.4" stroke="#1d1713" stroke-width="1.1" fill="none"/><path d="M2,-7 L2.4,7 M-2.6,-7.4 L-2.4,7.6" stroke="#1d1713" stroke-width="0.8" fill="none"/><path d="M-8,-2 C-4,-4 2,-4 6,-1 C5,1 1,1.6 -3,1 C-6,0.6 -8,0 -8,-2 Z" fill="#c9ab8c" stroke="#1d1713" stroke-width="1.4" stroke-linejoin="round"/></g><path d="M161,252.9 L161.6,263.9 C162,272.7 175.6,272.2 175.2,263.4 L175,252.4 C174.6,243.3 160.6,243.8 161,252.9 Z" fill="#f2eee4" stroke="#1d1713" stroke-width="1.8"/><path d="M159.2,212.9 L162.4,262.9 C162.7,270.7 174.7,270.2 174.4,262.4 L173.6,212.4 C173.2,203 158.8,203.6 159.2,212.9 Z M161,252.9 L161.6,263.9 C162,272.7 175.6,272.2 175.2,263.4 L175,252.4 C174.6,243.3 160.6,243.8 161,252.9 Z" fill="#1d1713" fill-opacity="0.18"/>
  </g>

  <!-- Canilla izquierda (lejana); pivote en la rodilla -->
  <g id="pierna-izq" data-pieza="" data-pivote="133 346">
    <path d="M127,338 L139,338 C140,370 139,410 139,430 L140,452 L128,452 C127,436 128,424 126,410 C122,392 122,370 127,338 Z" fill="#c9ab8c" stroke="#1d1713" stroke-width="2.2" stroke-linejoin="round"/><path d="M126,372 C125,392 126,410 128,426 L131,426 C129,410 128,392 129,372 Z" fill="#1d1713" fill-opacity="0.1"/><path d="M127,338 L139,338 C140,370 139,410 139,430 L140,452 L128,452 C127,436 128,424 126,410 C122,392 122,370 127,338 Z" fill="#1d1713" fill-opacity="0.18"/><path d="M121,466 C129,469.5 149,470.5 164,466 C166,468 165.5,472.5 162,474 C147,476.5 127,476 121,473 C119.5,471 119.5,468 121,466 Z" fill="#cbbd96" stroke="#1d1713" stroke-width="2.0"/><path d="M122,456 C120.5,460 120.5,464 122,467 L128,467 C127,463 127,459 128,455 Z" fill="#f2eee4" stroke="#1d1713" stroke-width="1.6"/><path d="M126,453 C130,448 139,447 144,451 C151,454 160,458 164,465 C162,467.5 159,468 156,468 L127,467 C126,462 125,457 126,453 Z" fill="#f2eee4" stroke="#1d1713" stroke-width="2.0"/><path d="M135,459 L140,463 L145,459 L150,463 L155,460" stroke="#1d1713" stroke-width="1.1" fill="none"/><path d="M126,449 C131,445.5 137,445.5 142,448.5 M126,445 C132,448.5 136,449.5 142,452 M123,457 C128,454 134,451 142,449" stroke="#1d1713" stroke-width="2.4" fill="none" stroke-linecap="round"/><circle cx="143" cy="449" r="4.6" fill="#1d1713"/><path d="M140.4,448.5 C141,446 145.4,446 145.4,449 C145.4,451.4 142,451.6 141.8,449.4 C141.8,448 143.8,447.8 143.8,449.2" stroke="#eee6d2" stroke-width="0.8" fill="none"/><path d="M144,452.5 C146,455 146,457 148,459 M142,452.5 C142,455 140,457 140,459" stroke="#1d1713" stroke-width="2" fill="none" stroke-linecap="round"/><path d="M126,453 C130,448 139,447 144,451 C151,454 160,458 164,465 C162,467.5 159,468 156,468 L127,467 C126,462 125,457 126,453 Z" fill="#1d1713" fill-opacity="0.1"/>
  </g>

  <!-- Canilla derecha; pivote en la rodilla -->
  <g id="pierna-der" data-pieza="" data-pivote="157 346">
    <path d="M151,338 L163,338 C164,370 163,410 163,430 L164,452 L152,452 C151,436 152,424 150,410 C146,392 146,370 151,338 Z" fill="#c9ab8c" stroke="#1d1713" stroke-width="2.6" stroke-linejoin="round"/><path d="M150,372 C149,392 150,410 152,426 L155,426 C153,410 152,392 153,372 Z" fill="#1d1713" fill-opacity="0.1"/><path d="M145,466 C153,469.5 173,470.5 188,466 C190,468 189.5,472.5 186,474 C171,476.5 151,476 145,473 C143.5,471 143.5,468 145,466 Z" fill="#cbbd96" stroke="#1d1713" stroke-width="2.4"/><path d="M146,456 C144.5,460 144.5,464 146,467 L152,467 C151,463 151,459 152,455 Z" fill="#f2eee4" stroke="#1d1713" stroke-width="1.92"/><path d="M150,453 C154,448 163,447 168,451 C175,454 184,458 188,465 C186,467.5 183,468 180,468 L151,467 C150,462 149,457 150,453 Z" fill="#f2eee4" stroke="#1d1713" stroke-width="2.4"/><path d="M159,459 L164,463 L169,459 L174,463 L179,460" stroke="#1d1713" stroke-width="1.1" fill="none"/><path d="M150,449 C155,445.5 161,445.5 166,448.5 M150,445 C156,448.5 160,449.5 166,452 M147,457 C152,454 158,451 166,449" stroke="#1d1713" stroke-width="2.4" fill="none" stroke-linecap="round"/><circle cx="167" cy="449" r="4.6" fill="#1d1713"/><path d="M164.4,448.5 C165,446 169.4,446 169.4,449 C169.4,451.4 166,451.6 165.8,449.4 C165.8,448 167.8,447.8 167.8,449.2" stroke="#eee6d2" stroke-width="0.8" fill="none"/><path d="M168,452.5 C170,455 170,457 172,459 M166,452.5 C166,455 164,457 164,459" stroke="#1d1713" stroke-width="2" fill="none" stroke-linecap="round"/>
  </g>

  <!-- Enagua que asoma bajo el ruedo recogido -->
  <g id="enagua" data-pieza="" data-pivote="146 248">
    <path d="M188,336 L184,337.8 L178,341.4 L172,345 L166,348.6 L160,352.4 L154,356.4 L148,360.8 L142,365.2 L136,369.4 L130,373.5 L124,377.5 L118,381 L112,384.1 L106,386.8 L100,388.8 L94,389.3 L88,388.6 L86,388.3 L86,427.3 Q89,431.8 92,428.2 Q95,432.4 98,428.2 Q101,431.5 104,426.5 Q107,429.4 110,424.1 Q113,426.6 116,421.1 Q119,423.4 122,417.7 Q125,419.8 128,413.9 Q131,415.8 134,409.8 Q137,411.7 140,405.6 Q143,407.5 146,401.2 Q149,403 152,396.8 Q155,398.7 158,392.7 Q161,394.7 164,388.9 Q167,391 170,385.2 Q173,387.4 176,381.6 Q179,383.8 182,378 Q185,380.2 188,375 Z" fill="#f2eee4" stroke="#1d1713" stroke-width="1.8" stroke-linejoin="round"/><clipPath id="enagua-c-sombra"><path d="M188,336 L184,337.8 L178,341.4 L172,345 L166,348.6 L160,352.4 L154,356.4 L148,360.8 L142,365.2 L136,369.4 L130,373.5 L124,377.5 L118,381 L112,384.1 L106,386.8 L100,388.8 L94,389.3 L88,388.6 L86,388.3 L86,427.3 Q89,431.8 92,428.2 Q95,432.4 98,428.2 Q101,431.5 104,426.5 Q107,429.4 110,424.1 Q113,426.6 116,421.1 Q119,423.4 122,417.7 Q125,419.8 128,413.9 Q131,415.8 134,409.8 Q137,411.7 140,405.6 Q143,407.5 146,401.2 Q149,403 152,396.8 Q155,398.7 158,392.7 Q161,394.7 164,388.9 Q167,391 170,385.2 Q173,387.4 176,381.6 Q179,383.8 182,378 Q185,380.2 188,375 Z"/></clipPath><g clip-path="url(#enagua-c-sombra)"><path d="M80,378 L190,326 L190,369 L80,421 Z" fill="#1d1713" fill-opacity="0.18"/></g><ellipse cx="96" cy="425" rx="1.1" ry="0.8" transform="rotate(0 96 425)" fill="#644d3d" stroke="#1d1713" stroke-width="0.4"/><ellipse cx="122" cy="416" rx="2.1" ry="1.5" transform="rotate(37 122 416)" fill="#644d3d" stroke="#1d1713" stroke-width="0.4"/><ellipse cx="150" cy="400" rx="3.1" ry="2.2" transform="rotate(74 150 400)" fill="#644d3d" stroke="#1d1713" stroke-width="0.4"/><ellipse cx="176" cy="386" rx="1.6" ry="1.1" transform="rotate(111 176 386)" fill="#644d3d" stroke="#1d1713" stroke-width="0.4"/>
  </g>

  <!-- Falda recogida por delante; pliegues desde el puño, cintas del ruedo y barro -->
  <g id="falda" data-pieza="" data-pivote="146 248">
    <path d="M124,236 L170,244 C174,250 178,262 184,274 C190,286 194,300 193,316 C192,332 190,350 187,366 L186.3,366.4 L185.4,367 L184.3,367.6 L183.1,368.3 L181.9,369.1 L180.5,369.9 L179.1,370.7 L177.6,371.6 L176.2,372.5 L174.7,373.3 L173.3,374.2 L172,375 L170.7,375.8 L169.4,376.6 L168.1,377.4 L166.8,378.1 L165.5,378.9 L164.2,379.8 L162.9,380.6 L161.5,381.4 L160.2,382.3 L158.8,383.1 L157.4,384.1 L156,385 L154.6,386 L153.1,387 L151.7,388 L150.2,389.1 L148.7,390.2 L147.2,391.3 L145.7,392.4 L144.2,393.6 L142.7,394.7 L141.1,395.8 L139.6,396.9 L138,398 L136.4,399.1 L134.8,400.2 L133.1,401.4 L131.4,402.5 L129.8,403.7 L128.1,404.8 L126.4,405.9 L124.7,407 L123,408.1 L121.3,409.1 L119.6,410.1 L118,411 L116.4,411.9 L114.7,412.7 L113.1,413.6 L111.4,414.4 L109.8,415.1 L108.2,415.9 L106.6,416.6 L105,417.2 L103.4,417.8 L101.9,418.2 L100.4,418.7 L99,419 L97.6,419.2 L96.1,419.3 L94.6,419.4 L93.1,419.3 L91.7,419.2 L90.3,419 L89,418.8 L87.7,418.6 L86.6,418.4 L85.6,418.2 L84.7,418.1 L84,418 C86,396 92,350 101,310 C108,280 116,254 124,236 Z" fill="#212632" stroke="#1d1713" stroke-width="3.2" stroke-linejoin="round"/><clipPath id="falda-c-marcas"><path d="M124,236 L170,244 C174,250 178,262 184,274 C190,286 194,300 193,316 C192,332 190,350 187,366 L186.3,366.4 L185.4,367 L184.3,367.6 L183.1,368.3 L181.9,369.1 L180.5,369.9 L179.1,370.7 L177.6,371.6 L176.2,372.5 L174.7,373.3 L173.3,374.2 L172,375 L170.7,375.8 L169.4,376.6 L168.1,377.4 L166.8,378.1 L165.5,378.9 L164.2,379.8 L162.9,380.6 L161.5,381.4 L160.2,382.3 L158.8,383.1 L157.4,384.1 L156,385 L154.6,386 L153.1,387 L151.7,388 L150.2,389.1 L148.7,390.2 L147.2,391.3 L145.7,392.4 L144.2,393.6 L142.7,394.7 L141.1,395.8 L139.6,396.9 L138,398 L136.4,399.1 L134.8,400.2 L133.1,401.4 L131.4,402.5 L129.8,403.7 L128.1,404.8 L126.4,405.9 L124.7,407 L123,408.1 L121.3,409.1 L119.6,410.1 L118,411 L116.4,411.9 L114.7,412.7 L113.1,413.6 L111.4,414.4 L109.8,415.1 L108.2,415.9 L106.6,416.6 L105,417.2 L103.4,417.8 L101.9,418.2 L100.4,418.7 L99,419 L97.6,419.2 L96.1,419.3 L94.6,419.4 L93.1,419.3 L91.7,419.2 L90.3,419 L89,418.8 L87.7,418.6 L86.6,418.4 L85.6,418.2 L84.7,418.1 L84,418 C86,396 92,350 101,310 C108,280 116,254 124,236 Z"/></clipPath><g clip-path="url(#falda-c-marcas)"><path d="M124,236 C114,262 104,300 96,340 C90,370 86,396 84,418 L104,418 C104,380 110,320 128,250 Z" fill="#1d1713" fill-opacity="0.4"/><path d="M185,279 L176,372 L150,390 Z" fill="#1d1713" fill-opacity="0.1"/><path d="M184.4,279 L184.3,280.4 L184.1,282.1 L184,284.1 L183.8,286.3 L183.6,288.6 L183.4,291.2 L183.2,293.9 L182.9,296.7 L182.7,299.6 L182.5,302.6 L182.2,305.6 L182,308.7 L181.7,311.8 L181.5,314.8 L181.3,317.8 L181.1,320.8 L180.8,323.8 L180.6,327.1 L180.3,330.5 L180.1,334.1 L179.8,337.8 L179.6,341.5 L179.3,345.3 L179,349 L178.8,352.6 L178.6,356.1 L178.4,359.4 L178.2,362.6 L178,365.4 L177.9,368 L177.9,370.2 L177.9,372 L178.1,372 L178.4,370.2 L178.7,368 L178.9,365.5 L179.2,362.6 L179.5,359.5 L179.8,356.2 L180.1,352.7 L180.4,349.1 L180.7,345.4 L181,341.7 L181.3,337.9 L181.6,334.2 L181.9,330.7 L182.2,327.2 L182.4,323.9 L182.6,320.9 L182.9,318 L183.1,314.9 L183.3,311.9 L183.5,308.8 L183.8,305.7 L184,302.7 L184.2,299.7 L184.4,296.8 L184.6,294 L184.8,291.3 L185,288.7 L185.1,286.4 L185.3,284.2 L185.4,282.2 L185.5,280.5 L185.6,279 Z" fill="#1d1713"/><path d="M184.5,278.9 L184.1,280.5 L183.6,282.4 L183,284.6 L182.4,287.1 L181.8,289.8 L181.1,292.6 L180.3,295.7 L179.6,298.9 L178.8,302.1 L178,305.5 L177.1,309 L176.3,312.4 L175.5,315.9 L174.6,319.3 L173.8,322.7 L173,326.1 L172.2,329.5 L171.3,333.2 L170.4,337.1 L169.5,341.1 L168.5,345.3 L167.5,349.5 L166.5,353.7 L165.5,357.9 L164.6,362 L163.7,366 L162.8,369.7 L162.1,373.3 L161.4,376.5 L160.7,379.4 L160.2,381.9 L159.9,384 L160.1,384 L160.7,382 L161.4,379.6 L162.2,376.7 L163,373.5 L163.9,370 L164.8,366.2 L165.8,362.3 L166.8,358.2 L167.8,354.1 L168.8,349.8 L169.9,345.6 L170.9,341.5 L171.8,337.4 L172.8,333.5 L173.7,329.9 L174.5,326.4 L175.3,323.1 L176.1,319.7 L176.9,316.2 L177.7,312.8 L178.5,309.3 L179.3,305.9 L180.1,302.5 L180.9,299.2 L181.6,296 L182.4,292.9 L183,290.1 L183.6,287.4 L184.2,284.9 L184.7,282.7 L185.2,280.8 L185.5,279.1 Z" fill="#1d1713"/><path d="M184.5,278.8 L183.8,280.7 L182.9,282.9 L181.9,285.5 L180.8,288.3 L179.6,291.4 L178.3,294.7 L176.9,298.2 L175.4,301.8 L174,305.6 L172.4,309.5 L170.9,313.5 L169.3,317.5 L167.8,321.5 L166.2,325.4 L164.7,329.4 L163.2,333.2 L161.7,337.1 L160,341.4 L158.3,345.9 L156.5,350.6 L154.6,355.3 L152.8,360.2 L150.9,365.1 L149,369.9 L147.2,374.6 L145.5,379.2 L143.9,383.5 L142.3,387.6 L141,391.3 L139.7,394.7 L138.7,397.6 L137.9,400 L138.1,400 L139.1,397.7 L140.3,394.9 L141.7,391.6 L143.2,387.9 L144.8,383.9 L146.5,379.6 L148.3,375 L150.2,370.3 L152.1,365.5 L154,360.7 L155.9,355.8 L157.7,351 L159.6,346.4 L161.3,341.9 L163,337.7 L164.5,333.7 L166,329.9 L167.5,325.9 L169.1,322 L170.6,318 L172.1,314 L173.7,310 L175.2,306.1 L176.6,302.3 L178,298.6 L179.4,295.1 L180.7,291.8 L181.9,288.7 L182.9,285.9 L183.9,283.3 L184.8,281.1 L185.5,279.2 Z" fill="#1d1713"/><path d="M184.6,278.8 L183.5,280.9 L182.2,283.3 L180.8,286.2 L179.1,289.3 L177.4,292.7 L175.5,296.4 L173.5,300.2 L171.4,304.3 L169.2,308.5 L167,312.8 L164.7,317.2 L162.4,321.6 L160.1,326 L157.8,330.4 L155.6,334.8 L153.4,339 L151.2,343.4 L148.7,348.1 L146.2,353.1 L143.5,358.2 L140.8,363.6 L138.1,368.9 L135.3,374.3 L132.6,379.7 L129.9,384.9 L127.3,390 L124.9,394.8 L122.6,399.3 L120.6,403.4 L118.7,407.1 L117.2,410.3 L115.9,413 L116.1,413 L117.5,410.5 L119.2,407.3 L121.2,403.7 L123.3,399.6 L125.7,395.2 L128.2,390.4 L130.8,385.4 L133.5,380.2 L136.3,374.8 L139,369.4 L141.8,364.1 L144.6,358.8 L147.2,353.6 L149.8,348.6 L152.2,343.9 L154.5,339.6 L156.7,335.3 L158.9,331 L161.2,326.6 L163.4,322.1 L165.7,317.7 L168,313.3 L170.2,309 L172.3,304.8 L174.4,300.7 L176.4,296.8 L178.3,293.2 L180,289.8 L181.6,286.6 L183.1,283.8 L184.3,281.3 L185.4,279.2 Z" fill="#1d1713"/><path d="M181.9,285 L181.6,286.5 L181.3,288.3 L181,290.3 L180.7,292.6 L180.3,295.1 L180,297.8 L179.6,300.6 L179.2,303.6 L178.8,306.6 L178.4,309.8 L178,312.9 L177.6,316.1 L177.2,319.3 L176.7,322.4 L176.3,325.4 L175.9,328.4 L175.4,331.4 L174.9,334.6 L174.3,338 L173.8,341.5 L173.2,345.1 L172.6,348.7 L172,352.3 L171.4,355.9 L170.8,359.4 L170.2,362.7 L169.7,365.9 L169.2,368.9 L168.8,371.6 L168.4,374.1 L168.1,376.2 L167.9,378 L168.1,378 L168.5,376.3 L169,374.2 L169.5,371.8 L170,369 L170.6,366.1 L171.2,362.9 L171.8,359.5 L172.4,356.1 L173.1,352.5 L173.7,348.9 L174.4,345.3 L175,341.7 L175.6,338.2 L176.2,334.8 L176.7,331.6 L177.1,328.6 L177.6,325.6 L178,322.6 L178.4,319.4 L178.8,316.3 L179.2,313.1 L179.6,309.9 L180,306.8 L180.3,303.7 L180.7,300.8 L181,297.9 L181.2,295.2 L181.5,292.7 L181.7,290.4 L181.9,288.4 L182.1,286.5 L182.1,285 Z" fill="#eee6d2" fill-opacity="0.5"/><path d="M181.9,285 L181.2,286.7 L180.5,288.8 L179.7,291.1 L178.9,293.8 L178,296.7 L177,299.8 L176,303.1 L174.9,306.6 L173.8,310.1 L172.6,313.7 L171.5,317.4 L170.4,321.1 L169.2,324.8 L168.1,328.4 L167,331.9 L165.9,335.3 L164.8,338.8 L163.6,342.5 L162.3,346.3 L161.1,350.3 L159.7,354.4 L158.4,358.5 L157.1,362.7 L155.8,366.7 L154.5,370.7 L153.3,374.5 L152.1,378.2 L151,381.6 L150,384.7 L149.2,387.5 L148.5,389.9 L147.9,392 L148.1,392 L148.9,390.1 L149.7,387.7 L150.7,384.9 L151.8,381.8 L152.9,378.5 L154.2,374.8 L155.5,371 L156.8,367.1 L158.2,363 L159.5,358.9 L160.9,354.8 L162.2,350.7 L163.6,346.7 L164.8,342.9 L166,339.2 L167.1,335.7 L168.2,332.3 L169.3,328.7 L170.4,325.1 L171.5,321.5 L172.7,317.8 L173.8,314.1 L174.9,310.4 L175.9,306.9 L177,303.4 L177.9,300.1 L178.8,297 L179.7,294.1 L180.5,291.4 L181.1,288.9 L181.7,286.8 L182.1,285 Z" fill="#eee6d2" fill-opacity="0.5"/><path d="M181.9,284.9 L180.9,286.9 L179.7,289.3 L178.4,292 L177,295 L175.5,298.3 L173.8,301.9 L172.1,305.6 L170.3,309.6 L168.5,313.6 L166.6,317.7 L164.7,321.9 L162.8,326.1 L160.9,330.3 L159,334.4 L157.2,338.4 L155.4,342.2 L153.6,346.2 L151.7,350.3 L149.8,354.7 L147.7,359.2 L145.6,363.8 L143.5,368.4 L141.4,373 L139.4,377.6 L137.4,382.1 L135.4,386.4 L133.6,390.5 L131.9,394.3 L130.4,397.8 L129,400.9 L127.8,403.7 L126.9,406 L127.1,406 L128.2,403.9 L129.5,401.2 L131,398.1 L132.6,394.6 L134.4,390.8 L136.3,386.8 L138.3,382.5 L140.4,378.1 L142.5,373.5 L144.6,368.9 L146.7,364.3 L148.8,359.7 L150.9,355.2 L152.9,350.9 L154.8,346.7 L156.6,342.8 L158.3,338.9 L160.2,334.9 L162,330.8 L163.9,326.6 L165.8,322.4 L167.7,318.2 L169.5,314.1 L171.3,310 L173.1,306.1 L174.7,302.3 L176.3,298.7 L177.8,295.4 L179.1,292.3 L180.3,289.5 L181.3,287.1 L182.1,285.1 Z" fill="#eee6d2" fill-opacity="0.5"/><path d="M131.9,252 L131.5,253.6 L131.2,255.6 L130.7,257.8 L130.3,260.3 L129.8,263 L129.3,265.9 L128.8,269 L128.3,272.2 L127.7,275.5 L127.1,278.9 L126.5,282.4 L125.9,285.9 L125.3,289.5 L124.6,293 L124,296.5 L123.4,299.9 L122.7,303.3 L122,306.9 L121.3,310.5 L120.6,314.2 L119.9,318 L119.1,321.8 L118.3,325.7 L117.6,329.6 L116.8,333.5 L116,337.4 L115.2,341.3 L114.4,345.1 L113.6,348.9 L112.9,352.7 L112.1,356.3 L111.4,359.9 L110.6,363.4 L109.8,367.1 L109,370.9 L108.2,374.7 L107.3,378.5 L106.4,382.2 L105.6,386 L104.8,389.6 L104,393.2 L103.2,396.6 L102.5,399.8 L101.8,402.8 L101.2,405.5 L100.7,408 L100.2,410.1 L99.9,412 L100.1,412 L100.6,410.2 L101.2,408.1 L101.8,405.7 L102.5,402.9 L103.2,399.9 L104,396.8 L104.9,393.4 L105.7,389.9 L106.6,386.2 L107.5,382.5 L108.4,378.7 L109.3,374.9 L110.2,371.1 L111,367.4 L111.8,363.7 L112.6,360.1 L113.4,356.6 L114.2,352.9 L115,349.2 L115.8,345.4 L116.6,341.6 L117.4,337.7 L118.2,333.8 L118.9,329.9 L119.7,326 L120.5,322.1 L121.2,318.3 L122,314.5 L122.7,310.7 L123.4,307.1 L124,303.6 L124.6,300.1 L125.2,296.7 L125.9,293.2 L126.5,289.7 L127,286.1 L127.6,282.6 L128.2,279.1 L128.7,275.7 L129.2,272.3 L129.7,269.1 L130.2,266 L130.6,263.1 L131,260.4 L131.4,257.9 L131.7,255.7 L131.9,253.7 L132.1,252 Z" fill="#eee6d2" fill-opacity="0.5"/><path d="M84,402 L86,402.3 L88,402.6 L90,403 L92,403.2 L94,403.3 L96,403.3 L98,403.2 L100,402.8 L102,402.2 L104,401.5 L106,400.8 L108,400 L110,399.1 L112,398.1 L114,397.1 L116,396.1 L118,395 L120,393.9 L122,392.7 L124,391.5 L126,390.2 L128,388.9 L130,387.5 L132,386.1 L134,384.8 L136,383.4 L138,382 L140,380.6 L142,379.2 L144,377.7 L146,376.2 L148,374.8 L150,373.3 L152,371.8 L154,370.4 L156,369 L158,367.7 L160,366.4 L162,365.1 L164,363.9 L166,362.6 L168,361.4 L170,360.2 L172,359 L174,357.8 L176,356.6 L178,355.4 L180,354.2 L182,353 L184,351.8 L186,350.6 L188,350 L188,362 L186,362.6 L184,363.8 L182,365 L180,366.2 L178,367.4 L176,368.6 L174,369.8 L172,371 L170,372.2 L168,373.4 L166,374.6 L164,375.9 L162,377.1 L160,378.4 L158,379.7 L156,381 L154,382.4 L152,383.8 L150,385.3 L148,386.8 L146,388.2 L144,389.7 L142,391.2 L140,392.6 L138,394 L136,395.4 L134,396.8 L132,398.1 L130,399.5 L128,400.9 L126,402.2 L124,403.5 L122,404.7 L120,405.9 L118,407 L116,408.1 L114,409.1 L112,410.1 L110,411.1 L108,412 L106,412.8 L104,413.5 L102,414.2 L100,414.8 L98,415.2 L96,415.3 L94,415.3 L92,415.2 L90,415 L88,414.6 L86,414.3 L84,414 Z" fill="#e1aeb3" stroke="#1d1713" stroke-width="1.2" stroke-linejoin="round"/><path d="M90,405.5 L93,409 L90,412.5 L87,409 Z" fill="#1d1713"/><path d="M103,404.4 L106,407.9 L103,411.4 L100,407.9 Z" fill="#1d1713"/><path d="M116,398.6 L119,402.1 L116,405.6 L113,402.1 Z" fill="#1d1713"/><path d="M129,390.7 L132,394.2 L129,397.7 L126,394.2 Z" fill="#1d1713"/><path d="M142,381.7 L145,385.2 L142,388.7 L139,385.2 Z" fill="#1d1713"/><path d="M155,372.2 L158,375.7 L155,379.2 L152,375.7 Z" fill="#1d1713"/><path d="M168,363.9 L171,367.4 L168,370.9 L165,367.4 Z" fill="#1d1713"/><path d="M181,356.1 L184,359.6 L181,363.1 L178,359.6 Z" fill="#1d1713"/><path d="M84,392 L86,392.3 L88,392.6 L90,393 L92,393.2 L94,393.3 L96,393.3 L98,393.2 L100,392.8 L102,392.2 L104,391.5 L106,390.8 L108,390 L110,389.1 L112,388.1 L114,387.1 L116,386.1 L118,385 L120,383.9 L122,382.7 L124,381.5 L126,380.2 L128,378.9 L130,377.5 L132,376.1 L134,374.8 L136,373.4 L138,372 L140,370.6 L142,369.2 L144,367.7 L146,366.2 L148,364.8 L150,363.3 L152,361.8 L154,360.4 L156,359 L158,357.7 L160,356.4 L162,355.1 L164,353.9 L166,352.6 L168,351.4 L170,350.2 L172,349 L174,347.8 L176,346.6 L178,345.4 L180,344.2 L182,343 L184,341.8 L186,340.6 L188,340 L188,346 L186,346.6 L184,347.8 L182,349 L180,350.2 L178,351.4 L176,352.6 L174,353.8 L172,355 L170,356.2 L168,357.4 L166,358.6 L164,359.9 L162,361.1 L160,362.4 L158,363.7 L156,365 L154,366.4 L152,367.8 L150,369.3 L148,370.8 L146,372.2 L144,373.7 L142,375.2 L140,376.6 L138,378 L136,379.4 L134,380.8 L132,382.1 L130,383.5 L128,384.9 L126,386.2 L124,387.5 L122,388.7 L120,389.9 L118,391 L116,392.1 L114,393.1 L112,394.1 L110,395.1 L108,396 L106,396.8 L104,397.5 L102,398.2 L100,398.8 L98,399.2 L96,399.3 L94,399.3 L92,399.2 L90,399 L88,398.6 L86,398.3 L84,398 Z" fill="#7a9e72" stroke="#1d1713" stroke-width="1.2" stroke-linejoin="round"/><path d="M84,380 L86,380.3 L88,380.6 L90,381 L92,381.2 L94,381.3 L96,381.3 L98,381.2 L100,380.8 L102,380.2 L104,379.5 L106,378.8 L108,378 L110,377.1 L112,376.1 L114,375.1 L116,374.1 L118,373 L120,371.9 L122,370.7 L124,369.5 L126,368.2 L128,366.9 L130,365.5 L132,364.1 L134,362.8 L136,361.4 L138,360 L140,358.6 L142,357.2 L144,355.7 L146,354.2 L148,352.8 L150,351.3 L152,349.8 L154,348.4 L156,347 L158,345.7 L160,344.4 L162,343.1 L164,341.9 L166,340.6 L168,339.4 L170,338.2 L172,337 L174,335.8 L176,334.6 L178,333.4 L180,332.2 L182,331 L184,329.8 L186,328.6 L188,328 L188,336 L186,336.6 L184,337.8 L182,339 L180,340.2 L178,341.4 L176,342.6 L174,343.8 L172,345 L170,346.2 L168,347.4 L166,348.6 L164,349.9 L162,351.1 L160,352.4 L158,353.7 L156,355 L154,356.4 L152,357.8 L150,359.3 L148,360.8 L146,362.2 L144,363.7 L142,365.2 L140,366.6 L138,368 L136,369.4 L134,370.8 L132,372.1 L130,373.5 L128,374.9 L126,376.2 L124,377.5 L122,378.7 L120,379.9 L118,381 L116,382.1 L114,383.1 L112,384.1 L110,385.1 L108,386 L106,386.8 L104,387.5 L102,388.2 L100,388.8 L98,389.2 L96,389.3 L94,389.3 L92,389.2 L90,389 L88,388.6 L86,388.3 L84,388 Z" fill="#dbcb8e" stroke="#1d1713" stroke-width="1.2" stroke-linejoin="round"/><path d="M86,381.8 L94,387.8 L102,381.7 L110,383.6 L118,374.5 L126,374.7 L134,364.3 L142,363.7 L150,352.8 L158,352.2 L166,342.1 L174,342.3 L182,332.5" stroke="#1d1713" stroke-width="1.3" fill="none"/><ellipse cx="100" cy="414" rx="3.1" ry="2.2" transform="rotate(0 100 414)" fill="#644d3d" stroke="#1d1713" stroke-width="0.4"/><ellipse cx="124" cy="406" rx="1.6" ry="1.1" transform="rotate(37 124 406)" fill="#644d3d" stroke="#1d1713" stroke-width="0.4"/><ellipse cx="146" cy="394" rx="2.6" ry="1.8" transform="rotate(74 146 394)" fill="#644d3d" stroke="#1d1713" stroke-width="0.4"/><ellipse cx="170" cy="380" rx="1.1" ry="0.8" transform="rotate(111 170 380)" fill="#644d3d" stroke="#1d1713" stroke-width="0.4"/></g><path d="M124,236 L170,244 C174,250 178,262 184,274 C190,286 194,300 193,316 C192,332 190,350 187,366 L186.3,366.4 L185.4,367 L184.3,367.6 L183.1,368.3 L181.9,369.1 L180.5,369.9 L179.1,370.7 L177.6,371.6 L176.2,372.5 L174.7,373.3 L173.3,374.2 L172,375 L170.7,375.8 L169.4,376.6 L168.1,377.4 L166.8,378.1 L165.5,378.9 L164.2,379.8 L162.9,380.6 L161.5,381.4 L160.2,382.3 L158.8,383.1 L157.4,384.1 L156,385 L154.6,386 L153.1,387 L151.7,388 L150.2,389.1 L148.7,390.2 L147.2,391.3 L145.7,392.4 L144.2,393.6 L142.7,394.7 L141.1,395.8 L139.6,396.9 L138,398 L136.4,399.1 L134.8,400.2 L133.1,401.4 L131.4,402.5 L129.8,403.7 L128.1,404.8 L126.4,405.9 L124.7,407 L123,408.1 L121.3,409.1 L119.6,410.1 L118,411 L116.4,411.9 L114.7,412.7 L113.1,413.6 L111.4,414.4 L109.8,415.1 L108.2,415.9 L106.6,416.6 L105,417.2 L103.4,417.8 L101.9,418.2 L100.4,418.7 L99,419 L97.6,419.2 L96.1,419.3 L94.6,419.4 L93.1,419.3 L91.7,419.2 L90.3,419 L89,418.8 L87.7,418.6 L86.6,418.4 L85.6,418.2 L84.7,418.1 L84,418 C86,396 92,350 101,310 C108,280 116,254 124,236 Z" fill="none" stroke="#1d1713" stroke-width="3.2" stroke-linejoin="round"/><path d="M124,236 L170,244 L169.4,252 L123,244 Z" fill="#1d1713"/>
  </g>

  <!-- Torso inclinado adelante -->
  <g id="torso" data-pieza="" data-pivote="147.9 242.2">
    <g transform="translate(0 10) rotate(14 146 240)">
    <path d="M136,130 C150,126 163,128 167,136 C173,150 175,168 171,184 C168,200 166,216 165,232 L128,232 C126,210 123,188 125,164 C126,148 128,138 136,130 Z" fill="#f2eee4" stroke="#1d1713" stroke-width="2.8"/>
    <path d="M125,164 C125,190 126,212 128,231 L135,231 C132,208 131,186 132,160 Z" fill="#1d1713" fill-opacity="0.1"/>
    <!-- escote redondo con festón -->
    <path d="M141,131 C148,136 157,137 163,134" stroke="#1d1713" stroke-width="1.2" fill="none"/>
    <path d="M142,133.5 Q144,136 146,134.6 Q148,137 150,135.4 Q152,137.6 154,135.8 Q156,137.8 158,135.6 Q160,137.2 162,135" stroke="#1d1713" stroke-width="0.7" fill="none"/>
    <!-- pechera bordada con abalorios -->
    <circle cx="165" cy="139" r="0.9" fill="#1d1713"/><circle cx="168.5" cy="146" r="0.9" fill="#1d1713"/><circle cx="163.5" cy="145.1" r="0.9" fill="#dbcb8e"/><circle cx="165.3" cy="146.4" r="0.9" fill="#dbcb8e"/><circle cx="164.6" cy="148.5" r="0.9" fill="#dbcb8e"/><circle cx="162.4" cy="148.5" r="0.9" fill="#dbcb8e"/><circle cx="161.7" cy="146.4" r="0.9" fill="#dbcb8e"/><circle cx="163.5" cy="147" r="0.8" fill="#1d1713" stroke="#1d1713" stroke-width="0.6"/><circle cx="170.5" cy="154" r="0.9" fill="#1d1713"/><circle cx="171.2" cy="162" r="0.9" fill="#1d1713"/><circle cx="166.2" cy="161.1" r="0.9" fill="#7a9e72"/><circle cx="168" cy="162.4" r="0.9" fill="#7a9e72"/><circle cx="167.3" cy="164.5" r="0.9" fill="#7a9e72"/><circle cx="165.1" cy="164.5" r="0.9" fill="#7a9e72"/><circle cx="164.4" cy="162.4" r="0.9" fill="#7a9e72"/><circle cx="166.2" cy="163" r="0.8" fill="#1d1713" stroke="#1d1713" stroke-width="0.6"/><circle cx="170.6" cy="170" r="0.9" fill="#1d1713"/><circle cx="169" cy="178" r="0.9" fill="#1d1713"/><circle cx="164" cy="177.1" r="0.9" fill="#e1aeb3"/><circle cx="165.8" cy="178.4" r="0.9" fill="#e1aeb3"/><circle cx="165.1" cy="180.5" r="0.9" fill="#e1aeb3"/><circle cx="162.9" cy="180.5" r="0.9" fill="#e1aeb3"/><circle cx="162.2" cy="178.4" r="0.9" fill="#e1aeb3"/><circle cx="164" cy="179" r="0.8" fill="#1d1713" stroke="#1d1713" stroke-width="0.6"/><path d="M160,140 L163,144 L161,148 L164,152 L162,156 L165,160 L163,164 L166,168 L164,172 L166,176" stroke="#1d1713" stroke-width="0.8" fill="none"/>
</g>
  </g>

  <!-- Cabeza derecha (sirven las cabezas por expresión de pie) -->
  <g id="cabeza" data-pieza="" data-pivote="176.5 144.2">
    <g transform="translate(26.5 14.2)">    <!-- cuello -->
    <path d="M140,108 L161,118 C161,125 161,131 163,137 L137,137 C138,128 139,118 140,108 Z" fill="#c9ab8c" stroke="#1d1713" stroke-width="2.4"/>
    <path d="M141,114 C142,124 141,131 140,136 L147,136 C146,129 146,121 148,116 Z" fill="#1d1713" fill-opacity="0.1"/>
    <path d="M149,118 C153,124 157,130 159,136" stroke="#1d1713" stroke-width="0.8" fill="none"/>
    <!-- rostro de perfil: frente, entrecejo, nariz recta con punta redonda, labios definidos, mentón firme -->
    <path d="M166,58 C169,62 171,68 172,74 C173,77 172,79 171,81 C174,86 178,90 180,93 C181.5,95.5 180,98 177,98.5 C175.5,98.8 174.5,99.5 174,100.5 C175,102 176.2,103.5 176,105 C175.6,106.2 174,106.6 173.2,107 C174.5,107.8 175.4,109 175,110.2 C174.6,111.2 173,111.5 172.4,112 C173.6,113.4 174.4,115.4 173.4,117.4 C172,119.6 168.5,120.6 164,120.8 C158,121 152,119 147,115 C138,108 128,96 126,80 C125,62 136,47 152,46 C159,46 164,50 166,58 Z" fill="#c9ab8c" stroke="#1d1713" stroke-width="2.8" stroke-linejoin="round"/>
    <!-- sombra bajo la mandíbula -->
    <path d="M150,116 C156,119 162,120.5 168,120.5 C163,123 155,122 150,119 Z" fill="#1d1713" fill-opacity="0.18"/>
<ellipse cx="160.2" cy="97.6" rx="6.4" ry="3.8" fill="#cb9f92"/><path d="M158,95 L156.5,99 M160.5,95.5 L159,99.5 M163,96 L161.5,100" stroke="#1d1713" stroke-width="0.8" stroke-linecap="round"/><path d="M155,90 C157,93 159,95 162,96" stroke="#1d1713" stroke-width="0.7" fill="none"/><clipPath id="ojo-alerta"><path d="M157.5,80.5 C160.5,78.2 164.5,78 168,79.6 C165.5,82.4 161.5,83.4 157.5,80.5 Z"/></clipPath><path d="M157.5,80.5 C160.5,78.2 164.5,78 168,79.6 C165.5,82.4 161.5,83.4 157.5,80.5 Z" fill="#f2eee4" stroke="#1d1713" stroke-width="0.9"/><g clip-path="url(#ojo-alerta)"><ellipse cx="164.4" cy="80.7" rx="2" ry="2.5" fill="#1d1713"/><circle cx="165.2" cy="79.8" r="0.65" fill="#eee6d2"/></g><path d="M156.2,80.4 C159.5,76.7 164.5,76.4 168.6,78.8 C169.4,78.2 170,77.4 170.3,76.6" stroke="#1d1713" stroke-width="2.1" fill="none" stroke-linecap="round"/><path d="M168.6,79.2 L171,78.6 M167.4,78.5 L169.4,77" stroke="#1d1713" stroke-width="0.9" stroke-linecap="round"/><path d="M158.4,75.8 C161.5,74.6 165,74.6 167.6,75.8" stroke="#1d1713" stroke-width="0.8" fill="none"/><path d="M159.5,82.8 C162,83.8 165,83.6 167.2,82.2" stroke="#1d1713" stroke-width="0.7" fill="none"/><path d="M171.4,70.8 C166.4,67 159.6,68.2 154,72.2 C159.6,70.4 165.4,69.8 170.8,72.6 Z" fill="#1d1713" stroke="#1d1713" stroke-width="0.8" stroke-linejoin="round"/><path d="M165,65.4 C167,65 169,65.4 170.4,66.4" stroke="#1d1713" stroke-width="0.7" fill="none"/>    <!-- nariz: ala y fosa -->
    <path d="M173.2,94.6 C175,92.4 178.2,92.8 178.6,95.6" stroke="#1d1713" stroke-width="1.2" fill="none" stroke-linecap="round"/>
    <ellipse cx="176.2" cy="97.2" rx="1.3" ry="0.6" fill="#1d1713"/>
    <path d="M171,88 C172.4,90.5 173.2,92 173.2,94.6" stroke="#1d1713" stroke-width="0.6" fill="none"/>
<path d="M173.3,107 L169,107.4" stroke="#1d1713" stroke-width="1.5" stroke-linecap="round"/><path d="M171.5,110.2 C172.6,110.8 173.8,110.6 174.4,110" stroke="#1d1713" stroke-width="0.8" fill="none"/><path d="M169,107.4 C168.2,106.6 168.4,105.8 169.2,105.4" stroke="#1d1713" stroke-width="0.8" fill="none"/>    <!-- pelo: raya al medio, peinado hacia atrás, recogido en trenzas -->
    <path d="M166,57 C160,48 146,44 134,50 C122,57 118,74 121,92 C123,103 129,110 137,113 L142,109 C138,105 136,100 137.5,96 C137,90 136,84 140,80.5 C143,78 147,77 150,75 C155,71 160,64 166,62 Z" fill="#1d1713"/>
    <path d="M162,58 C152,58 142,64 136,74 M157,55 C146,59 135,70 130,86 M151,53 C140,59 129,74 127,94 M146,62 C140,70 136,80 134,92" stroke="#eee6d2" stroke-width="0.8" fill="none" stroke-linecap="round"/>
    <path d="M150,75 C148,77 146.5,79 146.8,82" stroke="#1d1713" stroke-width="1.1" fill="none" stroke-linecap="round"/>
    <!-- oreja: hélix, antihélix, trago, concha y lóbulo -->
    <path id="oreja-der" d="M146,83 C141,79.5 136.5,82.5 136.5,89 C136.5,95.5 139.5,100.8 144,100.8 C146.5,100.8 147.6,98.8 147,96.6 L147.6,92.4 C148.6,89.2 148.6,85.6 146,83 Z" fill="#c9ab8c" stroke="#1d1713" stroke-width="1.8" stroke-linejoin="round"/>
    <path d="M144.6,84.6 C140.6,83.8 139.2,87.6 139.6,91.6 C139.9,94.2 141,96.4 142.6,97.4" stroke="#1d1713" stroke-width="0.9" fill="none"/>
    <path d="M143.4,86.4 C141.8,88.6 142,91.6 143.6,94.2 M142.4,88.2 L144.4,87.2" stroke="#1d1713" stroke-width="0.8" fill="none"/>
    <path d="M144.5,90 C146,90.2 146.6,91.4 146.4,92.8 C145.2,93.6 144,92.8 144.2,91.4 Z" fill="#1d1713"/>
    <path d="M147.6,92.4 C146.8,93 146.6,94.4 147.2,95.2" stroke="#1d1713" stroke-width="0.8" fill="none"/>
    <path d="M141.4,97.6 C142.4,99.2 143.6,99.8 145,99.6" stroke="#1d1713" stroke-width="0.7" fill="none"/></g>
  </g>

  <!-- Zarcillo; hijo de cabeza -->
  <g id="zarcillo" data-pieza="" data-pivote="170.1 115" data-padre="cabeza">
    <g transform="translate(26.5 14.2)"><path d="M143.6,100.6 C143.4,102 143.4,103 143.6,104" stroke="#1d1713" stroke-width="0.9" fill="none"/>
    <circle cx="143.6" cy="104.6" r="1.2" fill="#dbcb8e"/><circle cx="145.9" cy="106.3" r="1.2" fill="#dbcb8e"/><circle cx="145" cy="108.9" r="1.2" fill="#dbcb8e"/><circle cx="142.2" cy="108.9" r="1.2" fill="#dbcb8e"/><circle cx="141.3" cy="106.3" r="1.2" fill="#dbcb8e"/><circle cx="143.6" cy="107" r="1" fill="#1d1713" stroke="#1d1713" stroke-width="0.6"/>
    <path d="M143.6,109.8 C141.6,112 141.8,114.6 143.6,115.8 C145.4,114.6 145.6,112 143.6,109.8 Z" fill="#dbcb8e" stroke="#1d1713" stroke-width="0.8"/>
    <circle cx="143" cy="113" r="0.5" fill="#eee6d2"/></g>
  </g>

  <!-- Mechones; hijo de cabeza -->
  <g id="mechones" data-pieza="" data-pivote="176.5 144.2" data-padre="cabeza">
    <g transform="translate(26.5 14.2)"><path d="M140,50 C136,44 130,44 127,47 M131,58 C125,55 120,57 118,61 M124,78 C119,77 116,80 116,84" stroke="#1d1713" stroke-width="1" fill="none" stroke-linecap="round"/></g>
  </g>

  <!-- Ruana inclinada con el torso -->
  <g id="ruana" data-pieza="" data-pivote="172.1 141.1">
    <g transform="translate(0 10) rotate(14 146 240)"><path d="M144,124 C134,122 124,128 119,140 C111,170 106,220 104,272 C120,280 150,282 172,276 C174,236 172,190 168,156 C165,140 157,127 144,124 Z" fill="#574336" stroke="#1d1713" stroke-width="2.8" stroke-linejoin="round"/><path d="M131,142 C124,180 118,225 116,272 M144,140 C142,185 141,230 142,276 M156,144 C160,190 161,235 162,276" stroke="#eee6d2" stroke-width="1.3" fill="none" stroke-linecap="round"/><clipPath id="ruana-listas"><path d="M144,124 C134,122 124,128 119,140 C111,170 106,220 104,272 C120,280 150,282 172,276 C174,236 172,190 168,156 C165,140 157,127 144,124 Z"/></clipPath><g clip-path="url(#ruana-listas)"><path d="M100,258 C122,266 150,268 176,262" stroke="#dad0bb" stroke-width="2.4" fill="none"/><path d="M100,264 C122,272 150,274 176,268" stroke="#dad0bb" stroke-width="1.3" fill="none"/></g><path d="M134,124 C144,131 158,133 168,128" stroke="#1d1713" stroke-width="5" fill="none" stroke-linecap="round"/><path d="M136,123.5 C146,129.5 158,131 166,127" stroke="#eee6d2" stroke-width="0.8" fill="none" stroke-linecap="round"/></g>
  </g>

  <!-- Trenza echada atrás por la carrera -->
  <g id="trenza" data-pieza="" data-pivote="160.5 124.2">
    <g transform="translate(26.5 14.2) rotate(22 134 110)"><g transform="rotate(32 135.6 113.7)"><ellipse cx="135.6" cy="113.7" rx="4.1" ry="7.8" fill="#1d1713" stroke="#eee6d2" stroke-width="0.6"/></g><g transform="rotate(-32 131.3 121.1)"><ellipse cx="131.3" cy="121.1" rx="4" ry="7.8" fill="#1d1713" stroke="#eee6d2" stroke-width="0.6"/></g><g transform="rotate(32 134.6 128.6)"><ellipse cx="134.6" cy="128.6" rx="3.9" ry="7.8" fill="#1d1713" stroke="#eee6d2" stroke-width="0.6"/></g><g transform="rotate(-32 130.5 136)"><ellipse cx="130.5" cy="136" rx="3.8" ry="7.8" fill="#1d1713" stroke="#eee6d2" stroke-width="0.6"/></g><g transform="rotate(32 133.5 143.4)"><ellipse cx="133.5" cy="143.4" rx="3.6" ry="7.8" fill="#1d1713" stroke="#eee6d2" stroke-width="0.6"/></g><g transform="rotate(-32 129.5 150.9)"><ellipse cx="129.5" cy="150.9" rx="3.5" ry="7.8" fill="#1d1713" stroke="#eee6d2" stroke-width="0.6"/></g><g transform="rotate(32 132.1 158.3)"><ellipse cx="132.1" cy="158.3" rx="3.4" ry="7.8" fill="#1d1713" stroke="#eee6d2" stroke-width="0.6"/></g><g transform="rotate(-32 128.3 165.7)"><ellipse cx="128.3" cy="165.7" rx="3.3" ry="7.8" fill="#1d1713" stroke="#eee6d2" stroke-width="0.6"/></g><g transform="rotate(32 130.6 173.1)"><ellipse cx="130.6" cy="173.1" rx="3.1" ry="7.8" fill="#1d1713" stroke="#eee6d2" stroke-width="0.6"/></g><g transform="rotate(-32 126.8 180.6)"><ellipse cx="126.8" cy="180.6" rx="3" ry="7.8" fill="#1d1713" stroke="#eee6d2" stroke-width="0.6"/></g><g transform="rotate(32 128.8 188)"><ellipse cx="128.8" cy="188" rx="2.9" ry="7.8" fill="#1d1713" stroke="#eee6d2" stroke-width="0.6"/></g><g transform="rotate(-32 125.2 195.4)"><ellipse cx="125.2" cy="195.4" rx="2.8" ry="7.8" fill="#1d1713" stroke="#eee6d2" stroke-width="0.6"/></g><g transform="rotate(32 126.8 202.9)"><ellipse cx="126.8" cy="202.9" rx="2.6" ry="7.8" fill="#1d1713" stroke="#eee6d2" stroke-width="0.6"/></g><g transform="rotate(-32 123.3 210.3)"><ellipse cx="123.3" cy="210.3" rx="2.5" ry="7.8" fill="#1d1713" stroke="#eee6d2" stroke-width="0.6"/></g><path d="M121.5,216.4 C123.5,215.4 125.5,215.4 127.5,216.4 L127.1,219.4 C125.5,218.6 123.5,218.6 121.9,219.4 Z" fill="#1d1713"/><path d="M123.5,221 C121.5,227 122.5,231 120.5,234 M124.5,221 C124.5,227 125.5,231 124.5,235 M125.5,221 C127.5,226 127.5,229 128.5,232" stroke="#1d1713" stroke-width="1.6" fill="none" stroke-linecap="round"/></g>
  </g>

  <!-- Cinta roja; hija de trenza (en la M2 va oculta) -->
  <g id="cinta" data-pieza="" data-pivote="111.6 219.9" data-padre="trenza">
    <g transform="translate(26.5 14.2) rotate(22 134 110)"><g><path d="M124.5,217 C114.5,208 110.5,219 120.5,220 Z" fill="#ca2d23" stroke="#1d1713" stroke-width="1.3" stroke-linejoin="round"/><path d="M124.5,217 C134.5,208 138.5,219 128.5,220 Z" fill="#ca2d23" stroke="#1d1713" stroke-width="1.3" stroke-linejoin="round"/><path d="M123.5,219 C119.5,226 118.5,231 115.5,236 L119.5,235 C121.5,230 123.5,225 125.5,220 Z" fill="#ca2d23" stroke="#1d1713" stroke-width="1.2" stroke-linejoin="round"/><path d="M125.5,219 C128.5,225 128.5,230 131.5,234 L127.5,235 C125.5,230 124.5,225 123.5,220 Z" fill="#ca2d23" stroke="#1d1713" stroke-width="1.2" stroke-linejoin="round"/><ellipse cx="124.5" cy="218" rx="2.6" ry="2.2" fill="#ca2d23" stroke="#1d1713" stroke-width="1.3"/><path d="M115.5,216 C117.5,213 120.5,213 121.5,216 M133.5,216 C131.5,213 128.5,213 127.5,216" stroke="#eee6d2" stroke-width="0.8" fill="none"/></g></g>
  </g>

  <!-- Brazo derecho tendido hacia la falda -->
  <g id="brazo-der" data-pieza="" data-pivote="177 154.7">
    <path d="M166.9,151.6 L151.8,209.7 C148.8,219.7 164.1,224.3 167.1,214.4 L187,157.7 C191,144.7 170.9,138.5 166.9,151.6 Z" fill="#f2eee4" stroke="#1d1713" stroke-width="2.6" stroke-linejoin="round"/><path d="M180.7,159.6 L177.1,169.8" stroke="#1d1713" stroke-width="0.9"/><path d="M175.9,158.1 L172.8,168.4" stroke="#1d1713" stroke-width="0.9"/><path d="M171.2,156.6 L168.5,167.1" stroke="#1d1713" stroke-width="0.9"/><path d="M174.9,169.6 L162.8,208 C162,210.5 165.8,211.7 166.6,209.3 L179.9,171.3 C180.9,168.1 176,166.4 174.9,169.6 Z" fill="#1d1713" fill-opacity="0.1"/>
  </g>

  <!-- Antebrazo y puño que recoge la falda; hijo de brazo-der -->
  <g id="antebrazo-der" data-pieza="" data-pivote="159.5 212.1" data-padre="brazo-der">
    <path d="M152.3,215 L174.1,264.4 C177.2,272.1 189.1,267.3 185.9,259.6 L166.7,209.1 C162.8,199.7 148.4,205.6 152.3,215 Z" fill="#f2eee4" stroke="#1d1713" stroke-width="2.6" stroke-linejoin="round"/><path d="M163.8,216.1 L176.9,249.2 C177.7,251.2 180.6,250 179.9,248.1 L167.6,214.6 C166.6,212.2 162.9,213.6 163.8,216.1 Z" fill="#1d1713" fill-opacity="0.1"/><g transform="translate(185.3 274.9) rotate(-22.3) scale(1)"><path d="M-6,-9 C-9,-14 -4,-17 0,-13 C3,-17 8,-14 6,-9 Z" fill="#212632" stroke="#1d1713" stroke-width="1.4"/><path d="M-5,8 C-9,14 -6,19 -1,15 C2,20 8,17 5,9 Z" fill="#212632" stroke="#1d1713" stroke-width="1.4"/><path d="M-8,-8 C-9,-2 -9,4 -7,9 C-3,11 3,11 7,9 C10,4 10,-2 8,-8 C4,-11 -4,-11 -8,-8 Z" fill="#c9ab8c" stroke="#1d1713" stroke-width="2" stroke-linejoin="round"/><path d="M8,-6 C10,-4 10,-1 8.6,0.6 M8.8,1.6 C10.4,3.4 10,6 8,7.4" stroke="#1d1713" stroke-width="1.1" fill="none"/><path d="M2,-7 L2.4,7 M-2.6,-7.4 L-2.4,7.6" stroke="#1d1713" stroke-width="0.8" fill="none"/><path d="M-8,-2 C-4,-4 2,-4 6,-1 C5,1 1,1.6 -3,1 C-6,0.6 -8,0 -8,-2 Z" fill="#c9ab8c" stroke="#1d1713" stroke-width="1.4" stroke-linejoin="round"/></g><path d="M169.1,254.8 L173.8,265.7 C177.3,274.4 190.6,268.9 187.1,260.3 L182.7,249.2 C179.1,240.3 165.4,245.9 169.1,254.8 Z" fill="#f2eee4" stroke="#1d1713" stroke-width="2"/><circle cx="181.9" cy="256" r="0.9" fill="#1d1713"/><circle cx="178.2" cy="257.5" r="0.9" fill="#1d1713"/><circle cx="174.5" cy="259" r="0.9" fill="#1d1713"/>
  </g>

  <!-- Doblez de la ruana sobre el hombro derecho -->
  <g id="ruana-doblez" data-pieza="" data-pivote="172.1 141.1">
    <g transform="translate(0 10) rotate(14 146 240)"><path d="M138,124 C152,122 167,129 171,140 C170,154 162,163 151,165 C147,156 143,142 138,130 Z" fill="#574336" stroke="#1d1713" stroke-width="2.6" stroke-linejoin="round"/><path d="M145,132 C151,140 155,150 156,160 M154,130 C160,137 164,146 165,153" stroke="#eee6d2" stroke-width="1.2" fill="none" stroke-linecap="round"/><path d="M151,165 C160,163 168,156 171,146" stroke="#dad0bb" stroke-width="2" fill="none"/></g>
  </g>
</svg>
