<svg xmlns="http://www.w3.org/2000/svg" width="300" height="500" viewBox="0 0 300 500">
  <!--
    Rosalba Insuasty — agachada (sigilo), variante monte. Pose dibujada aparte.
    Personaje ficticio (doc 01); hoja de personaje: planeacion/arte/tomo1/personajes/rosalba.md.
    Vestuario: doc 03 §3.1 [V] y J. Ocampo López, "El pueblo boyacense y su folclor", cap. 4 (BanRep).
    En cuclillas tras un escondite: falda sobre las rodillas, ruana sobre la espalda, mano apoyada en el suelo.
    Colores: paleta del juego (game/art/paleta.json, planeacion/arte/tomo1/paleta.md); acento: rojo liberal de la cinta.
    Lado visible = lado DERECHO del personaje: piezas "-der" delante, "-izq" detrás.
    GENERADO por game/art/gen/rosalba.py: edita el script, no este archivo.
  -->

  <!-- Cuerpo en cuclillas: falda en domo, enagua al ras, talón de la alpargata -->
  <g id="cuerpo" data-pieza="" data-pivote="150 440">
    <path d="M93,466 C93,461 96,457 101,456 L112,456 L112,468 L95,469 Z" fill="#f2eee4" stroke="#1d1713" stroke-width="2"/><path d="M92,468 C96,470 106,471 114,470 L114,474 C106,475.5 96,475 92,473 Z" fill="#cbbd96" stroke="#1d1713" stroke-width="2"/><path d="M97,458 C101,460 106,460 111,458" stroke="#1d1713" stroke-width="2.2" fill="none" stroke-linecap="round"/><path d="M102,458 L222,458 L223,470 Q220,474.5 216,471 Q212,475 208,471 Q204,475 200,471 Q196,475 192,471 Q188,475 184,471 Q180,475 176,471 Q172,475 168,471 Q164,475 160,471 Q156,475 152,471 Q148,475 144,471 Q140,475 136,471 Q132,475 128,471 Q124,475 120,471 Q116,475 112,471 Q108,475 104,471 Q101,474 101,469 Z" fill="#f2eee4" stroke="#1d1713" stroke-width="1.6" stroke-linejoin="round"/><path d="M103,466 L222,466 L222,472 L103,472 Z" fill="#1d1713" fill-opacity="0.1"/><ellipse cx="108" cy="469" rx="2.1" ry="1.5" transform="rotate(0 108 469)" fill="#644d3d" stroke="#1d1713" stroke-width="0.4"/><ellipse cx="123" cy="471" rx="3.1" ry="2.2" transform="rotate(37 123 471)" fill="#644d3d" stroke="#1d1713" stroke-width="0.4"/><ellipse cx="139" cy="468" rx="1.6" ry="1.1" transform="rotate(74 139 468)" fill="#644d3d" stroke="#1d1713" stroke-width="0.4"/><ellipse cx="157" cy="471" rx="2.6" ry="1.8" transform="rotate(111 157 471)" fill="#644d3d" stroke="#1d1713" stroke-width="0.4"/><ellipse cx="171" cy="468" rx="1.1" ry="0.8" transform="rotate(148 171 468)" fill="#644d3d" stroke="#1d1713" stroke-width="0.4"/><ellipse cx="189" cy="471" rx="2.1" ry="1.5" transform="rotate(5 189 471)" fill="#644d3d" stroke="#1d1713" stroke-width="0.4"/><ellipse cx="205" cy="469" rx="3.1" ry="2.2" transform="rotate(42 205 469)" fill="#644d3d" stroke="#1d1713" stroke-width="0.4"/><ellipse cx="217" cy="471" rx="1.6" ry="1.1" transform="rotate(79 217 471)" fill="#644d3d" stroke="#1d1713" stroke-width="0.4"/><clipPath id="clip-falda-agachada"><path d="M118,404 C126,384 150,374 176,370 C192,368 204,370 212,378 C218,386 219,400 219,414 C219,436 220,452 222,466 Q166,472 104,466 C102,446 104,424 110,412 C112,408 115,405 118,404 Z"/></clipPath><path d="M118,404 C126,384 150,374 176,370 C192,368 204,370 212,378 C218,386 219,400 219,414 C219,436 220,452 222,466 Q166,472 104,466 C102,446 104,424 110,412 C112,408 115,405 118,404 Z" fill="#212632" stroke="#1d1713" stroke-width="3" stroke-linejoin="round"/><path d="M118,404 C110,414 104,440 104,466 L118,467 C116,440 120,420 128,400 Z" fill="#1d1713"/><path d="M206,388 C210,420 212,445 214,462 M194,380 C196,414 196,440 196,462 M178,376 C176,410 172,440 170,462 M160,380 C154,410 148,440 144,462 M140,388 C132,414 124,440 120,462" stroke="#eee6d2" stroke-width="1.4" fill="none" stroke-linecap="round" stroke-opacity="0.5"/><path d="M196,376 C204,374 210,378 213,384" stroke="#eee6d2" stroke-width="1.1" fill="none" stroke-linecap="round"/><g clip-path="url(#clip-falda-agachada)"><rect x="98" y="436" width="130" height="8" fill="#dbcb8e" stroke="#1d1713" stroke-width="1.2"/><path d="M100,437.5 L108,442.5 L116,437.5 L124,442.5 L132,437.5 L140,442.5 L148,437.5 L156,442.5 L164,437.5 L172,442.5 L180,437.5 L188,442.5 L196,437.5 L204,442.5 L212,437.5 L220,442.5" stroke="#1d1713" stroke-width="1.3" fill="none"/><rect x="98" y="447" width="130" height="5" fill="#7a9e72" stroke="#1d1713" stroke-width="1.2"/><rect x="98" y="455" width="130" height="11" fill="#e1aeb3" stroke="#1d1713" stroke-width="1.2"/><path d="M103,457 L106,460.5 L103,464 L100,460.5 Z" fill="#1d1713"/><path d="M116,457 L119,460.5 L116,464 L113,460.5 Z" fill="#1d1713"/><path d="M129,457 L132,460.5 L129,464 L126,460.5 Z" fill="#1d1713"/><path d="M142,457 L145,460.5 L142,464 L139,460.5 Z" fill="#1d1713"/><path d="M155,457 L158,460.5 L155,464 L152,460.5 Z" fill="#1d1713"/><path d="M168,457 L171,460.5 L168,464 L165,460.5 Z" fill="#1d1713"/><path d="M181,457 L184,460.5 L181,464 L178,460.5 Z" fill="#1d1713"/><path d="M194,457 L197,460.5 L194,464 L191,460.5 Z" fill="#1d1713"/><path d="M207,457 L210,460.5 L207,464 L204,460.5 Z" fill="#1d1713"/><path d="M220,457 L223,460.5 L220,464 L217,460.5 Z" fill="#1d1713"/><ellipse cx="110" cy="440" rx="3.1" ry="2.2" transform="rotate(0 110 440)" fill="#644d3d" stroke="#1d1713" stroke-width="0.4"/><ellipse cx="131" cy="446" rx="1.6" ry="1.1" transform="rotate(37 131 446)" fill="#644d3d" stroke="#1d1713" stroke-width="0.4"/><ellipse cx="152" cy="439" rx="2.6" ry="1.8" transform="rotate(74 152 439)" fill="#644d3d" stroke="#1d1713" stroke-width="0.4"/><ellipse cx="175" cy="448" rx="1.1" ry="0.8" transform="rotate(111 175 448)" fill="#644d3d" stroke="#1d1713" stroke-width="0.4"/><ellipse cx="199" cy="441" rx="2.1" ry="1.5" transform="rotate(148 199 441)" fill="#644d3d" stroke="#1d1713" stroke-width="0.4"/><ellipse cx="214" cy="446" rx="3.1" ry="2.2" transform="rotate(5 214 446)" fill="#644d3d" stroke="#1d1713" stroke-width="0.4"/><ellipse cx="122" cy="460" rx="1.6" ry="1.1" transform="rotate(42 122 460)" fill="#644d3d" stroke="#1d1713" stroke-width="0.4"/><ellipse cx="186" cy="462" rx="2.6" ry="1.8" transform="rotate(79 186 462)" fill="#644d3d" stroke="#1d1713" stroke-width="0.4"/></g><path d="M118,404 C126,384 150,374 176,370 C192,368 204,370 212,378 C218,386 219,400 219,414 C219,436 220,452 222,466 Q166,472 104,466 C102,446 104,424 110,412 C112,408 115,405 118,404 Z" fill="none" stroke="#1d1713" stroke-width="3" stroke-linejoin="round"/>
  </g>

  <!-- Cabeza (la de pie, inclinada hacia adelante) -->
  <g id="cabeza" data-pieza="" data-pivote="188 316">
    <g transform="translate(38 186) rotate(14 150 130)">    <!-- cuello -->
    <path d="M140,108 L161,118 C161,125 161,131 163,137 L137,137 C138,128 139,118 140,108 Z" fill="#c9ab8c" stroke="#1d1713" stroke-width="2.4"/>
    <path d="M141,114 C142,124 141,131 140,136 L147,136 C146,129 146,121 148,116 Z" fill="#1d1713" fill-opacity="0.1"/>
    <path d="M149,118 C153,124 157,130 159,136" stroke="#1d1713" stroke-width="0.8" fill="none"/>
    <!-- rostro de perfil: frente, entrecejo, nariz recta con punta redonda, labios definidos, mentón firme -->
    <path d="M166,58 C169,62 171,68 172,74 C173,77 172,79 171,81 C174,86 178,90 180,93 C181.5,95.5 180,98 177,98.5 C175.5,98.8 174.5,99.5 174,100.5 C175,102 176.2,103.5 176,105 C175.6,106.2 174,106.6 173.2,107 C174.5,107.8 175.4,109 175,110.2 C174.6,111.2 173,111.5 172.4,112 C173.6,113.4 174.4,115.4 173.4,117.4 C172,119.6 168.5,120.6 164,120.8 C158,121 152,119 147,115 C138,108 128,96 126,80 C125,62 136,47 152,46 C159,46 164,50 166,58 Z" fill="#c9ab8c" stroke="#1d1713" stroke-width="2.8" stroke-linejoin="round"/>
    <!-- sombra bajo la mandíbula -->
    <path d="M150,116 C156,119 162,120.5 168,120.5 C163,123 155,122 150,119 Z" fill="#1d1713" fill-opacity="0.18"/>
<ellipse cx="160.2" cy="97.6" rx="6.4" ry="3.8" fill="#cb9f92"/><path d="M158,95 L156.5,99 M160.5,95.5 L159,99.5 M163,96 L161.5,100" stroke="#1d1713" stroke-width="0.8" stroke-linecap="round"/><path d="M155,90 C157,93 159,95 162,96" stroke="#1d1713" stroke-width="0.7" fill="none"/><clipPath id="ojo-alerta"><path d="M157.5,80.5 C160.5,78.2 164.5,78 168,79.6 C165.5,82.4 161.5,83.4 157.5,80.5 Z"/></clipPath><path d="M157.5,80.5 C160.5,78.2 164.5,78 168,79.6 C165.5,82.4 161.5,83.4 157.5,80.5 Z" fill="#f2eee4" stroke="#1d1713" stroke-width="0.9"/><g clip-path="url(#ojo-alerta)"><ellipse cx="164.4" cy="80.7" rx="2" ry="2.5" fill="#1d1713"/><circle cx="165.2" cy="79.8" r="0.65" fill="#eee6d2"/></g><path d="M156.2,80.4 C159.5,76.7 164.5,76.4 168.6,78.8 C169.4,78.2 170,77.4 170.3,76.6" stroke="#1d1713" stroke-width="2.1" fill="none" stroke-linecap="round"/><path d="M168.6,79.2 L171,78.6 M167.4,78.5 L169.4,77" stroke="#1d1713" stroke-width="0.9" stroke-linecap="round"/><path d="M158.4,75.8 C161.5,74.6 165,74.6 167.6,75.8" stroke="#1d1713" stroke-width="0.8" fill="none"/><path d="M159.5,82.8 C162,83.8 165,83.6 167.2,82.2" stroke="#1d1713" stroke-width="0.7" fill="none"/><path d="M171.4,70.8 C166.4,67 159.6,68.2 154,72.2 C159.6,70.4 165.4,69.8 170.8,72.6 Z" fill="#1d1713" stroke="#1d1713" stroke-width="0.8" stroke-linejoin="round"/><path d="M165,65.4 C167,65 169,65.4 170.4,66.4" stroke="#1d1713" stroke-width="0.7" fill="none"/>    <!-- nariz: ala y fosa -->
    <path d="M173.2,94.6 C175,92.4 178.2,92.8 178.6,95.6" stroke="#1d1713" stroke-width="1.2" fill="none" stroke-linecap="round"/>
    <ellipse cx="176.2" cy="97.2" rx="1.3" ry="0.6" fill="#1d1713"/>
    <path d="M171,88 C172.4,90.5 173.2,92 173.2,94.6" stroke="#1d1713" stroke-width="0.6" fill="none"/>
<path d="M173.3,107 L169,107.4" stroke="#1d1713" stroke-width="1.5" stroke-linecap="round"/><path d="M171.5,110.2 C172.6,110.8 173.8,110.6 174.4,110" stroke="#1d1713" stroke-width="0.8" fill="none"/><path d="M169,107.4 C168.2,106.6 168.4,105.8 169.2,105.4" stroke="#1d1713" stroke-width="0.8" fill="none"/>    <!-- pelo: raya al medio, peinado hacia atrás, recogido en trenzas -->
    <path d="M166,57 C160,48 146,44 134,50 C122,57 118,74 121,92 C123,103 129,110 137,113 L142,109 C138,105 136,100 137.5,96 C137,90 136,84 140,80.5 C143,78 147,77 150,75 C155,71 160,64 166,62 Z" fill="#1d1713"/>
    <path d="M162,58 C152,58 142,64 136,74 M157,55 C146,59 135,70 130,86 M151,53 C140,59 129,74 127,94 M146,62 C140,70 136,80 134,92" stroke="#eee6d2" stroke-width="0.8" fill="none" stroke-linecap="round"/>
    <path d="M150,75 C148,77 146.5,79 146.8,82" stroke="#1d1713" stroke-width="1.1" fill="none" stroke-linecap="round"/>
    <!-- oreja: hélix, antihélix, trago, concha y lóbulo -->
    <path id="oreja-der" d="M146,83 C141,79.5 136.5,82.5 136.5,89 C136.5,95.5 139.5,100.8 144,100.8 C146.5,100.8 147.6,98.8 147,96.6 L147.6,92.4 C148.6,89.2 148.6,85.6 146,83 Z" fill="#c9ab8c" stroke="#1d1713" stroke-width="1.8" stroke-linejoin="round"/>
    <path d="M144.6,84.6 C140.6,83.8 139.2,87.6 139.6,91.6 C139.9,94.2 141,96.4 142.6,97.4" stroke="#1d1713" stroke-width="0.9" fill="none"/>
    <path d="M143.4,86.4 C141.8,88.6 142,91.6 143.6,94.2 M142.4,88.2 L144.4,87.2" stroke="#1d1713" stroke-width="0.8" fill="none"/>
    <path d="M144.5,90 C146,90.2 146.6,91.4 146.4,92.8 C145.2,93.6 144,92.8 144.2,91.4 Z" fill="#1d1713"/>
    <path d="M147.6,92.4 C146.8,93 146.6,94.4 147.2,95.2" stroke="#1d1713" stroke-width="0.8" fill="none"/>
    <path d="M141.4,97.6 C142.4,99.2 143.6,99.8 145,99.6" stroke="#1d1713" stroke-width="0.7" fill="none"/></g>
  </g>

  <!-- Zarcillo; hijo de cabeza -->
  <g id="zarcillo" data-pieza="" data-pivote="188.9 286.1" data-padre="cabeza">
    <g transform="translate(38 186) rotate(14 150 130)"><path d="M143.6,100.6 C143.4,102 143.4,103 143.6,104" stroke="#1d1713" stroke-width="0.9" fill="none"/>
    <circle cx="143.6" cy="104.6" r="1.2" fill="#dbcb8e"/><circle cx="145.9" cy="106.3" r="1.2" fill="#dbcb8e"/><circle cx="145" cy="108.9" r="1.2" fill="#dbcb8e"/><circle cx="142.2" cy="108.9" r="1.2" fill="#dbcb8e"/><circle cx="141.3" cy="106.3" r="1.2" fill="#dbcb8e"/><circle cx="143.6" cy="107" r="1" fill="#1d1713" stroke="#1d1713" stroke-width="0.6"/>
    <path d="M143.6,109.8 C141.6,112 141.8,114.6 143.6,115.8 C145.4,114.6 145.6,112 143.6,109.8 Z" fill="#dbcb8e" stroke="#1d1713" stroke-width="0.8"/>
    <circle cx="143" cy="113" r="0.5" fill="#eee6d2"/></g>
  </g>

  <!-- Mechones sueltos; hijo de cabeza -->
  <g id="mechones" data-pieza="" data-pivote="188 316" data-padre="cabeza">
    <g transform="translate(38 186) rotate(14 150 130)"><path d="M140,50 C136,44 130,44 127,47 M131,58 C125,55 120,57 118,61 M124,78 C119,77 116,80 116,84" stroke="#1d1713" stroke-width="1" fill="none" stroke-linecap="round"/></g>
  </g>

  <!-- Ruana sobre la espalda curvada -->
  <g id="ruana" data-pieza="" data-pivote="182 310">
    <g transform="translate(2 14)"><path d="M180,288 C190,290 197,296 199,305 C203,330 205,356 206,382 C190,394 172,406 154,420 C138,432 120,442 104,448 C102,400 110,346 128,316 C142,296 160,286 180,288 Z" fill="#574336" stroke="#1d1713" stroke-width="2.8" stroke-linejoin="round"/><path d="M150,300 C134,330 122,380 116,440 M168,296 C160,330 150,380 140,428 M186,300 C188,330 186,360 182,394" stroke="#eee6d2" stroke-width="1.3" fill="none" stroke-linecap="round"/><clipPath id="ruana-ag-listas"><path d="M180,288 C190,290 197,296 199,305 C203,330 205,356 206,382 C190,394 172,406 154,420 C138,432 120,442 104,448 C102,400 110,346 128,316 C142,296 160,286 180,288 Z"/></clipPath><g clip-path="url(#ruana-ag-listas)"><path d="M104,438 C126,431 148,420 166,404 C180,394 194,386 206,377" stroke="#dad0bb" stroke-width="2.4" fill="none"/><path d="M104,444 C127,437 150,426 168,410 C182,400 196,392 208,383" stroke="#dad0bb" stroke-width="1.3" fill="none"/></g><path d="M170,290 C180,296 192,298 198,296" stroke="#1d1713" stroke-width="5" fill="none" stroke-linecap="round"/><path d="M172,289 C181,294 191,296 196,294.6" stroke="#eee6d2" stroke-width="0.8" fill="none" stroke-linecap="round"/></g>
  </g>

  <!-- Trenza colgando por gravedad -->
  <g id="trenza" data-pieza="" data-pivote="177.3 292.7">
    <g transform="rotate(32 179.1 297.7)"><ellipse cx="179.1" cy="297.7" rx="4.1" ry="8.3" fill="#1d1713" stroke="#eee6d2" stroke-width="0.6"/></g><g transform="rotate(-32 175.3 305.6)"><ellipse cx="175.3" cy="305.6" rx="4" ry="8.3" fill="#1d1713" stroke="#eee6d2" stroke-width="0.6"/></g><g transform="rotate(32 178.9 313.5)"><ellipse cx="178.9" cy="313.5" rx="3.8" ry="8.3" fill="#1d1713" stroke="#eee6d2" stroke-width="0.6"/></g><g transform="rotate(-32 175.3 321.4)"><ellipse cx="175.3" cy="321.4" rx="3.7" ry="8.3" fill="#1d1713" stroke="#eee6d2" stroke-width="0.6"/></g><g transform="rotate(32 178.6 329.3)"><ellipse cx="178.6" cy="329.3" rx="3.6" ry="8.3" fill="#1d1713" stroke="#eee6d2" stroke-width="0.6"/></g><g transform="rotate(-32 175 337.3)"><ellipse cx="175" cy="337.3" rx="3.4" ry="8.3" fill="#1d1713" stroke="#eee6d2" stroke-width="0.6"/></g><g transform="rotate(32 177.9 345.2)"><ellipse cx="177.9" cy="345.2" rx="3.3" ry="8.3" fill="#1d1713" stroke="#eee6d2" stroke-width="0.6"/></g><g transform="rotate(-32 174.5 353.1)"><ellipse cx="174.5" cy="353.1" rx="3.1" ry="8.3" fill="#1d1713" stroke="#eee6d2" stroke-width="0.6"/></g><g transform="rotate(32 176.9 361)"><ellipse cx="176.9" cy="361" rx="3" ry="8.3" fill="#1d1713" stroke="#eee6d2" stroke-width="0.6"/></g><g transform="rotate(-32 173.6 368.9)"><ellipse cx="173.6" cy="368.9" rx="2.8" ry="8.3" fill="#1d1713" stroke="#eee6d2" stroke-width="0.6"/></g><g transform="rotate(32 175.6 376.8)"><ellipse cx="175.6" cy="376.8" rx="2.7" ry="8.3" fill="#1d1713" stroke="#eee6d2" stroke-width="0.6"/></g><g transform="rotate(-32 172.5 384.8)"><ellipse cx="172.5" cy="384.8" rx="2.5" ry="8.3" fill="#1d1713" stroke="#eee6d2" stroke-width="0.6"/></g><g><path d="M173.8,391.7 C163.8,382.7 159.8,393.7 169.8,394.7 Z" fill="#ca2d23" stroke="#1d1713" stroke-width="1.3" stroke-linejoin="round"/><path d="M173.8,391.7 C183.8,382.7 187.8,393.7 177.8,394.7 Z" fill="#ca2d23" stroke="#1d1713" stroke-width="1.3" stroke-linejoin="round"/><path d="M172.8,393.7 C168.8,400.7 167.8,405.7 164.8,410.7 L168.8,409.7 C170.8,404.7 172.8,399.7 174.8,394.7 Z" fill="#ca2d23" stroke="#1d1713" stroke-width="1.2" stroke-linejoin="round"/><path d="M174.8,393.7 C177.8,399.7 177.8,404.7 180.8,408.7 L176.8,409.7 C174.8,404.7 173.8,399.7 172.8,394.7 Z" fill="#ca2d23" stroke="#1d1713" stroke-width="1.2" stroke-linejoin="round"/><ellipse cx="173.8" cy="392.7" rx="2.6" ry="2.2" fill="#ca2d23" stroke="#1d1713" stroke-width="1.3"/><path d="M164.8,390.7 C166.8,387.7 169.8,387.7 170.8,390.7 M182.8,390.7 C180.8,387.7 177.8,387.7 176.8,390.7" stroke="#eee6d2" stroke-width="0.8" fill="none"/></g><path d="M172.8,395.7 C170.8,401.7 171.8,405.7 169.8,408.7 M173.8,395.7 C173.8,401.7 174.8,405.7 173.8,409.7 M174.8,395.7 C176.8,400.7 176.8,403.7 177.8,406.7" stroke="#1d1713" stroke-width="1.6" fill="none" stroke-linecap="round"/>
  </g>

  <!-- Brazo derecho hacia el suelo -->
  <g id="brazo-der" data-pieza="" data-pivote="188 330">
    <path d="M179,334.4 L207.8,388.5 C212.4,397.9 226.8,390.8 222.2,381.5 L197,325.6 C191.2,313.9 173.3,322.7 179,334.4 Z" fill="#f2eee4" stroke="#1d1713" stroke-width="2.6" stroke-linejoin="round"/><path d="M193.8,330.5 L198,340.1" stroke="#1d1713" stroke-width="0.9"/><path d="M189.3,332.8 L193.9,342.1" stroke="#1d1713" stroke-width="0.9"/><path d="M184.9,335 L189.9,344.1" stroke="#1d1713" stroke-width="0.9"/><path d="M199.7,337.9 L218.6,379.8 L215.9,381.1 L196.5,339.5 Z" fill="#1d1713" fill-opacity="0.1"/>
  </g>

  <!-- Antebrazo y mano apoyada; hijo de brazo-der -->
  <g id="antebrazo-der" data-pieza="" data-pivote="215 385" data-padre="brazo-der">
    <path d="M207.4,385.9 L215.8,446.7 C216.8,454.7 229.1,453.3 228.2,445.3 L222.6,384.1 C221.4,374.3 206.3,376.1 207.4,385.9 Z" fill="#f2eee4" stroke="#1d1713" stroke-width="2.6" stroke-linejoin="round"/><path d="M220.7,390.5 L224.4,432.1 L222,432.4 L217.7,390.9 Z" fill="#1d1713" fill-opacity="0.1"/><path d="M213.2,434.6 L214.6,445 C215.7,454.3 230,452.6 228.9,443.3 L228,433 C226.9,423.4 212.2,425.1 213.2,434.6 Z" fill="#f2eee4" stroke="#1d1713" stroke-width="2"/><circle cx="225.7" cy="438.5" r="0.8" fill="#1d1713"/><circle cx="222.7" cy="438.8" r="0.8" fill="#1d1713"/><circle cx="219.7" cy="439.2" r="0.8" fill="#1d1713"/><circle cx="216.7" cy="439.5" r="0.8" fill="#1d1713"/><path d="M216,452 C219,447 226,444 229,447 C233,451 236,456 240,460 C244,463 249,466 252,468 C254,470 253,473 250,473.6 L220,474 C216,473 214,470 214.4,466 C214.6,461 215,456 216,452 Z" fill="#c9ab8c" stroke="#1d1713" stroke-width="2.4" stroke-linejoin="round"/><path d="M236,461 C240,465 244,468 248,470 M232,464 C236,467 240,470 244,472" stroke="#1d1713" stroke-width="1" fill="none" stroke-linecap="round"/><path d="M228,452 C231,454 234,457 236,460" stroke="#1d1713" stroke-width="0.6" fill="none"/><path d="M224,462 C229,463 234,465 238,468 C240,469.6 239.4,472.4 237,472.6 C232,472.6 227,470.6 223.6,467.6" fill="#c9ab8c" stroke="#1d1713" stroke-width="1.6" stroke-linejoin="round"/><path d="M235.6,469.4 Q237.4,469.6 237.8,471.4 M248.6,470.4 Q250.4,470.8 250.6,472.6" stroke="#1d1713" stroke-width="0.7" fill="none"/><path d="M216,456 C215.4,462 216,468 219,472 L221,471 C218.6,467 218,462 218.4,456 Z" fill="#1d1713" fill-opacity="0.1"/>
  </g>

  <!-- Doblez de la ruana sobre el hombro derecho -->
  <g id="ruana-doblez" data-pieza="" data-pivote="182 310">
    <g transform="translate(2 14)"><path d="M176,298 C188,296 200,302 204,312 C204,324 198,332 190,334 C186,326 181,312 176,302 Z" fill="#574336" stroke="#1d1713" stroke-width="2.6" stroke-linejoin="round"/><path d="M182,304 C187,312 190,320 191,328 M190,302 C195,308 198,316 199,322" stroke="#eee6d2" stroke-width="1.2" fill="none" stroke-linecap="round"/><path d="M190,334 C198,332 203,326 204,316" stroke="#dad0bb" stroke-width="2" fill="none"/></g>
  </g>
</svg>
